<?xml version="1.0" encoding="UTF-8" standalone="no"?>
<!-- Created with Inkscape (http://www.inkscape.org/) -->

<svg
   width="234.94179"
   height="338.16766"
   viewBox="0 0 62.16168 89.473528"
   version="1.1"
   id="svg5"
   xml:space="preserve"
   xmlns="http://www.w3.org/2000/svg"
   xmlns:svg="http://www.w3.org/2000/svg"><defs
     id="defs2" /><g
     id="layer1"
     transform="translate(-295.95334,-194.27107)"><g
       id="g6739"
       transform="matrix(0.47902098,0,0,0.47902098,154.45285,148.62027)"><path
         id="path3478"
         style="fill:#232323;fill-opacity:1;stroke-width:0.264583"
         d="m 340.96101,281.05676 c -2.27282,-0.54195 -8.91434,-1.56941 -14.75872,-2.28323 -8.18198,-0.99933 -11.66945,-2.01522 -15.16222,-4.41695 -5.67478,-3.90207 -10.67223,-9.87848 -13.80119,-16.50365 -2.11262,-4.47331 -2.26184,-5.93328 -1.19356,-11.68479 1.31717,-7.09163 -1.22137,-28.27602 2.41062,-5.06704 0.34824,2.22531 0.28678,2.45309 1.76289,1.23378 1.729,-1.42819 1.72677,-2.66197 -0.0272,-14.69575 -0.49355,-3.38667 -0.44159,-3.43297 1.31977,-1.17512 1.00843,1.29265 2.28346,2.23263 2.83316,2.08888 0.54986,-0.14375 1.37729,3.74915 1.83883,8.65108 0.65458,6.95246 0.48503,9.13025 -0.77089,9.90283 -1.04468,0.64267 -1.98237,0.328 -2.67071,-0.8963 -0.9162,-1.62949 -1.27489,-1.5021 -2.63176,0.93464 -0.86391,1.5517 -1.58969,3.65601 -1.61271,4.67624 -0.0578,2.58265 6.99743,12.92516 8.64447,12.67169 0.74218,-0.11422 4.27169,1.14657 7.8433,2.80194 8.95668,4.15105 11.94383,4.95697 11.19347,3.01942 -0.46911,-1.21086 1.13122,-1.44409 7.38663,-1.07658 5.23452,0.30755 6.9903,0.72554 5.09614,1.21345 -2.59339,0.66805 -2.35148,0.90334 2.36138,2.29627 2.88793,0.85357 5.80046,1.99641 6.47251,2.53968 1.32402,1.07053 8.81406,-4.11321 8.81406,-6.09997 0,-0.64563 -0.83487,-0.3429 -1.85536,0.67273 -1.02048,1.01566 -2.71384,1.84664 -3.76291,1.84664 -1.45568,0 -1.15602,-0.78087 1.265,-3.29592 3.19114,-3.31523 4.3143,-8.45529 1.84743,-8.45529 -0.95459,0 -0.96851,-0.42796 -0.0496,-1.53006 2.12797,-2.55204 0.27239,-6.3238 -3.74385,-7.60968 -2.93952,-0.94123 -3.18505,-1.22203 -1.14988,-1.31641 2.61205,-0.12113 5.18848,-2.47023 2.70933,-2.47023 -0.73522,0 -1.1553,-0.9254 -0.93334,-2.05647 0.22752,-1.15935 -1.02235,-3.25543 -2.86517,-4.8051 -4.29869,-3.61447 -4.14788,-5.07259 0.36285,-3.50758 5.4266,1.88278 6.29311,0.2296 6.03938,-11.51996 -0.1347,-6.23411 0.46413,-12.45658 1.5486,-16.09116 2.2628,-7.58402 2.3236,-7.21519 -1.4787,-8.97678 -2.1948,-1.0169 -8.2206,-1.44074 -18.59598,-1.308 l -15.349,0.19635 -6.99321,6.70137 -14.44598,15.79007 15.03627,-17.7583 7.58349,-8.66934 7.61127,1.57681 c 6.95669,1.44118 13.46517,1.49235 12.94024,0.64709 -0.5188,-0.83561 2.023,0.36732 8.1825,-0.80653 l 7.7298,2.86623 2.75723,-13.385 c 0.84595,-4.84744 1.39959,-10.6643 1.23028,-12.92649 -0.19211,-2.56564 0.35775,-4.62941 1.46135,-5.48587 0.973,-0.75507 1.33511,-1.80477 0.80476,-2.3327 -0.53049,-0.52792 -1.92218,0.30382 -3.09272,1.84833 -2.08002,2.74479 -1.17287,0.35015 -12.57326,-0.50816 -6.41509,-0.483 -14.02795,1.4768 -15.42706,1.37512 -1.39912,-0.10165 -2.29751,-0.5815 -1.99655,-1.06622 0.30094,-0.48474 -0.0472,-0.88135 -0.77277,-0.88135 -0.72601,0 -1.01658,-0.48879 -0.64561,-1.0862 0.37097,-0.5974 -0.26175,-1.37403 -1.40621,-1.72579 -1.14432,-0.35179 0.0449,-0.39765 2.64216,-0.10189 2.59752,0.29575 6.18384,0.54356 7.96978,0.55068 11.05323,-1.04426 12.20126,4.25 11.70808,0.50408 0.0153,-1.70444 2.17432,-0.8246 5.70706,-1.66626 0.76298,1.17512 1.15059,1.27304 1.16263,0.29379 0.0119,-0.80791 0.84643,-1.46891 1.85878,-1.46891 1.01243,0 1.51233,0.52879 1.11101,1.17512 -0.41029,0.66066 0.53038,1.17512 2.14852,1.17512 3.20966,0 6.18543,5.31468 5.7703,10.30578 -0.47382,5.6978 1.50315,7.2017 9.41864,7.16386 4.03516,-0.0193 6.61458,-0.4467 5.78273,-0.95837 -1.03865,-0.63892 -0.55705,-1.1597 1.56229,-1.68908 2.64742,-0.66135 7.05352,-0.83161 7.22894,-5.12762 0.42199,-10.32748 -4.01161,-19.64029 -4.94189,-18.71398 -0.4273,0.42526 -1.46441,0.2053 -2.3047,-0.48879 -0.87643,-0.72398 -2.68446,-0.8867 -4.24101,-0.38169 -1.49227,0.48419 -3.86582,0.94009 -5.27473,1.01309 -2.74955,0.1425 -7.28345,-27.29706 -7.35939,-34.16035 l -0.0254,-2.28233 4.03331,21.81702 c 0.91869,4.20105 2.05857,8.82808 2.08891,10.2825 0.0567,2.72018 1.35626,3.54171 2.63552,1.48145 0.39706,-0.63942 0.0909,-4.35716 -0.68138,-8.26188 -0.77182,-3.90445 -1.11967,-7.38161 -0.77301,-7.72662 0.34666,-0.34502 1.28873,3.04006 2.09349,7.5221 1.32969,7.40516 1.69111,8.09228 3.95817,7.52316 1.3722,-0.34438 2.76039,-0.99785 3.08504,-1.45216 0.32469,-0.45435 1.74294,-1.18383 3.15171,-1.62111 3.17606,-0.98586 4.18995,1.59049 4.58074,11.64194 0.19671,5.05698 1.31209,9.21067 3.9444,14.68913 2.01864,4.20106 3.67057,8.88154 3.6711,10.4013 0,1.75488 2.69319,5.67055 7.38028,10.7323 16.69442,18.02897 21.88237,33.82433 14.5296,44.23304 -1.57149,2.22477 -4.60111,5.16281 -2.87999,9.52341 -3.3147,9.66708 -3.81741,6.8281 -10.96857,15.0159 -1.61721,1.85166 -7.79489,4.61327 -13.96391,4.91596 -8.92281,0.43809 -12.68571,0.0886 -18.40045,-1.70913 l -7.18397,-2.25984 -1.34397,5.00142 c -1.57234,5.85126 -5.37025,8.93181 -13.44295,10.90428 -6.19549,1.51368 -6.91753,1.5209 -12.76006,0.12776 z m 60.04454,-16.92249 c 3.67665,0.073 10.67779,-10.71748 5.51286,-6.55293 -2.04012,1.68518 -2.48407,-2.4e-4 -0.51607,-1.95903 0.78798,-0.78423 0.84891,-1.54493 0.15788,-1.97001 -0.61916,-0.38087 -2.07614,0.35266 -3.23771,1.63004 -2.56731,2.82337 -5.0546,3.12791 -2.77601,0.33984 1.44174,-1.76414 1.36004,-1.879 -0.74099,-1.04183 -1.29876,0.5175 -3.42397,1.18171 -4.72281,1.47601 -2.25738,0.51152 -2.2641,0.47371 -0.15351,-0.85818 1.64978,-1.04108 1.83419,-1.62314 0.72943,-2.30264 -1.0513,-0.6467 -0.75116,-1.13906 1.03912,-1.70458 3.16521,-0.99986 3.23665,-2.52577 0.15597,-3.32766 -3.61976,-0.94211 -2.80405,-3.18479 1.15814,-3.18479 2.80114,0 3.67612,-0.62058 4.28625,-3.04007 0.94538,-3.74861 -2.96149,-9.48901 -6.06743,-8.9146 -1.14244,0.21122 -2.41972,-0.16753 -2.83845,-0.84164 -0.51054,-0.82222 -1.79406,-0.69231 -3.8989,0.39457 -2.14521,1.10773 -3.27342,1.21523 -3.56658,0.33983 -0.26803,-0.80012 -1.0631,-0.89029 -2.11971,-0.24042 -0.92991,0.57203 -3.53483,1.11958 -5.78856,1.21682 l -4.0976,0.17679 4.04257,-3.35915 c 2.22348,-1.84748 5.30225,-3.35915 6.84213,-3.35915 3.2131,0 3.00487,-2.13972 -0.39212,-4.02908 -2.56765,-1.42798 -5.31124,-4.54766 -4.61168,-5.24378 0.25587,-0.25469 1.36723,0.27327 2.46954,1.1733 1.7962,1.46645 1.93326,1.36181 1.31977,-1.00767 -0.75399,-2.91227 0.21407,-3.40995 2.40035,-1.23388 1.10194,1.09678 1.45261,0.37864 1.57766,-3.23162 0.10509,-3.03874 0.32811,-3.62718 0.64524,-1.70395 0.75469,4.5765 2.903,9.40092 4.18623,9.40092 0.64006,0 0.9148,-0.66101 0.61056,-1.46892 -0.30438,-0.8079 -0.13283,-2.52653 0.381,-3.81926 0.84809,-2.13333 0.94538,-2.07909 1.05484,0.58756 0.11856,2.88899 0.15173,2.89878 1.9904,0.58756 1.81261,-2.27833 1.85251,-2.25136 1.30681,0.88135 -0.70181,4.02908 0.56745,4.16984 2.65165,0.2938 0.86887,-1.61581 1.94755,-2.93794 2.39718,-2.93794 0.44961,0 0.56354,1.32202 0.25315,2.93794 -0.36258,1.88785 -0.0271,2.93793 0.93713,2.93793 1.00277,0 0.79166,0.78052 -0.63569,2.35027 -2.08063,2.28825 -2.06208,2.35072 0.70252,2.36826 1.81886,0.0118 2.3177,0.34795 1.3878,0.93591 -1.00441,0.635 -0.27652,1.61628 2.36138,3.18373 l 3.81317,2.26586 -3.16071,0.61741 -3.16071,0.61741 2.94322,3.38719 5.38136,8.87307 3.97563,-5.96847 c 4.76197,-7.14878 4.8043,-12.93257 2.50161,-20.19803 -1.96456,-6.19892 -4.962,-14.92726 -7.73721,-14.92911 -0.84833,-5.3e-4 -3.97245,-2.0143 -6.57013,-6.33757 -2.90804,-4.84002 -6.45954,-11.45857 -9.73111,-13.80569 -5.17605,-3.71369 -12.18856,-3.20517 -12.18856,-1.09178 0,0.57616 -11.85122,2.188 -14.41609,3.2094 -5.93831,2.36479 -5.73061,4.55348 -5.61896,13.34293 0.0578,4.59635 -3.69755,11.73983 -5.64859,17.64533 -2.6398,7.98936 -1.31347,21.88104 -0.14012,26.51919 0.73229,2.89454 2.79241,6.98844 4.68392,10.1809 3.35256,5.65838 8.51035,5.44671 12.08196,8.39682 0.96522,0.79729 4.8297,0.88918 8.21531,2.06668 6.64448,2.31095 13.11936,2.0746 18.38166,-0.67093 z m -12.59417,-84.88891 c -0.85232,-0.33947 -1.87068,-0.29771 -2.26303,0.0927 -0.39235,0.3905 0.30509,0.66823 1.54966,0.6172 1.37552,-0.0564 1.65521,-0.33483 0.71337,-0.70996 z m -92.17289,50.62008 c -0.11335,-3.84281 0.71054,-5.93646 4.04468,-10.2825 5.23584,-6.82493 6.2574,-7.0792 1.85923,-0.46276 -1.82594,2.7469 -3.86953,7.37394 -4.54104,10.2825 l -1.22108,5.28796 z m 24.82956,-40.23254 c -0.23229,-21.04549 2.50629,-17.60644 0.66177,-1.13761 -0.19707,1.75962 1.37457,3.34381 2.4797,3.57294 1.55073,0.32168 1.46217,4.09284 -0.60298,4.65561 -2.4229,0.66013 -2.69981,-3.17209 -2.53849,-7.09084 z m 0.47016,-15.4604 c 0.98034,-9.25751 6.70057,-13.77606 8.9371,-9.57845 l 1.27071,2.38496 -4.95115,0.9503 c -2.85564,0.54809 -2.96068,-0.44381 -3.175,5.29246 -0.12279,3.28798 -0.8233,6.56564 -1.55686,7.28372 -0.99001,0.96922 -1.12519,-0.66223 -0.52469,-6.33281 z m 26.02045,-7.50041 c 0.69069,-1.97194 14.09515,-39.45202 14.28723,-39.25623 0.6404,6.25264 -11.11038,39.56579 -14.28723,39.25623 z m 7.28318,-3.59516 c 0,-0.96948 2.09259,-7.00114 2.6506,-8.29389 0.63958,-1.4814 3.1959,-9.69698 3.1959,-8.58573 0,0.96949 -2.63789,10.81855 -3.1959,12.1113 -0.6396,1.4814 -2.6506,5.87957 -2.6506,4.76859 z m 11.50594,-4.81092 c 1.94813,-0.88783 8.33808,-4.50638 9.31228,-4.48627 0.97406,0.02 -4.08782,3.65707 -6.36059,4.52861 -5.67134,2.17535 -23.11744,8.10445 -2.95169,-0.0424 z m -7.5692,-7.00828 c -0.0496,-0.64632 1.50029,-7.19534 3.44435,-14.55314 3.96822,-15.02013 4.25529,-17.30534 1.6401,-13.06222 -0.99592,1.61582 -7.88723,22.37158 -7.53825,21.24049 0.86614,-2.80564 5.94757,-26.10908 4.29101,-25.12113 -0.74371,-0.67736 -4.98554,-4.4786 -4.09442,-4.27223 0.8913,-1.09355 5.94783,2.86809 5.19112,3.46499 -1.61337,1.27243 4.03622,-3.04139 3.58114,-4.22196 -0.39423,-1.02235 -0.71668,-2.50669 -0.71668,-3.29856 0,-0.79184 -1.46111,-2.02427 -3.24697,-2.7387 l -3.24696,-1.299 4.0558,0.19082 c 3.94282,0.18549 4.06188,0.0599 4.27751,-4.50982 0.12184,-2.5853 -0.3072,-5.361523 -0.95342,-6.169563 -2.53471,-3.16865 0.87005,-1.25095 4.02669,2.26814 3.72957,4.157933 3.31602,4.096813 2.17154,6.839223 -3.67321,8.80242 -1.16631,0.97692 -1.19851,-1.76271 -0.0472,-3.04192 -0.22444,-3.23374 -1.29757,-1.39753 -2.83315,4.84796 2.92577,7.61471 7.42104,3.56579 1.18755,-1.06966 2.15913,-1.38356 2.15913,-0.69757 0,0.68598 7.37579,-0.81413 8.83708,-1.11189 1.46111,-0.29774 -5.91476,2.49497 -8.83708,3.98436 -2.92232,1.48931 -5.49011,2.31124 -5.70653,1.8265 -0.21654,-0.48474 -1.54483,-0.86453 -2.9517,-0.84397 -2.54121,0.0371 0.91128,-1.94985 3.25702,-0.102 1.63598,1.28873 -1.72754,3.84704 -2.75007,4.22857 -0.81172,0.30287 -1.29411,1.7676 -1.29411,3.03292 0,1.26521 -1.03582,5.58376 -2.30187,9.59696 -1.26606,4.0132 -3.61289,11.52684 -5.21547,16.69759 -1.60232,5.17049 -2.95407,8.87227 -3.00355,8.2259 z m 15.47389,-19.9771 c -0.0236,-1.93897 -0.5062,-5.783 -0.1828,-4.98739 0.32351,0.7956 2.34267,11.65277 2.04325,12.79604 -0.2993,1.14337 -1.83634,-5.86978 -1.86042,-7.80865 z m -1.31765,-5.77771 c -0.0507,-1.23877 -1.40811,-14.11208 -1.01579,-13.72155 0.39235,0.39047 3.70629,20.85419 3.36524,21.70245 -0.37701,0.93744 -2.2927,-6.61221 -2.34937,-7.98116 z m -16.62298,-10.0195 c 0,-1.70585 8.06741,-6.26613 9.09056,-5.24801 0.41264,0.41071 -2.21197,1.65563 -2.94429,1.65563 -0.73226,0 -2.41474,1.15734 -3.73882,2.57185 -1.32416,1.41452 -2.40745,1.77374 -2.40745,1.02045 z m 5.38004,-10.90454 c -2.33458,-3.31734 -2.32632,-5.743573 0.0295,-8.621183 3.30703,-1.51596 7.59513,0.62177 1.04669,0.0692 -1.94167,5.560753 -1.89042,6.345773 0.51181,7.838813 3.04774,2.22721 5.48693,6.25952 1.36382,3.32476 -0.49911,-0.35526 -1.94093,-1.17528 -2.95169,-2.61173 z m 25.90827,-0.56695 c 4.30344,-2.31994 1.17022,-5.152233 -3.27211,-1.64425 -9.4996,7.50147 -6.8916,3.24988 -2.42914,-0.84487 3.07129,-2.340533 9.83351,-1.947333 9.83351,0.40881 0,0.98547 -1.36287,2.30748 -3.02869,2.93793 -4.54951,1.72159 -5.09799,1.29561 -1.10384,-0.85751 z" /><path
         id="path4309"
         style="color:#000000;fill:#373737;fill-opacity:1;stroke-width:0.264583"
         d="m 346.6522,274.91313 c -1.28119,-0.6754 -2.51233,-1.12879 -6.41218,-2.36141 -3.70417,-1.17072 -3.92192,-1.38559 -2.02808,-1.99998 1.13384,-0.36785 1.32066,-0.57782 0.63994,-0.71935 -2.4307,-0.50533 -10.81749,-0.84555 -11.91498,-0.48337 -0.3711,0.12248 -0.68178,0.31859 -0.6904,0.43582 -0.009,0.11722 -0.0291,0.49943 -0.0455,0.84934 l -0.0298,0.63622 -0.91279,-0.0359 c -1.24306,-0.0489 -3.25702,-0.78938 -8.81988,-3.243 -4.67492,-2.06187 -7.76473,-3.22368 -9.17231,-3.44858 -0.58502,-0.0935 -0.95954,-0.35337 -1.91662,-1.32974 -2.51531,-2.56606 -5.95206,-7.9465 -6.72571,-10.52989 -0.32099,-1.07159 -0.014,-2.38463 1.0943,-4.68048 1.00713,-2.08634 1.52661,-2.81754 2.00165,-2.81754 0.19186,0 0.62079,0.38949 1.00436,0.91199 0.80385,1.09508 1.20922,1.33829 1.98733,1.19229 0.71634,-0.13439 1.32176,-0.74552 1.55938,-1.57411 0.54536,-1.90151 -0.27369,-12.11183 -1.25659,-15.66492 -0.29403,-1.06291 -0.36658,-1.15994 -1.15109,-1.53961 -0.52515,-0.25414 -1.36539,-0.98219 -2.25383,-1.95295 -0.77909,-0.85127 -1.47817,-1.48611 -1.55353,-1.41075 -0.0754,0.0754 0.19555,2.50838 0.60201,5.40676 0.90001,6.41773 1.03013,9.77159 0.41939,10.8114 -0.20471,0.34846 -0.72866,0.90543 -1.16433,1.23775 -0.64743,0.49382 -0.83346,0.5607 -1.01832,0.36621 -0.1244,-0.13088 -0.61741,-2.64105 -1.09556,-5.57821 l -0.8694,-5.34009 0.48853,-1.98686 c 0.96866,-3.93965 2.62805,-7.63058 5.51921,-12.27693 1.40205,-2.25303 2.13434,-3.16204 5.69542,-7.07073 2.24763,-2.46692 5.79279,-6.13674 7.87823,-8.15551 l 3.79174,-3.6703 10.47777,-0.12188 c 15.95861,-0.18564 21.08412,0.15613 24.18848,1.61287 0.79798,0.37447 1.63875,0.88104 1.86838,1.1257 0.66164,0.70498 0.54414,1.96744 -0.53776,5.77717 -1.66572,5.86555 -1.85122,7.46946 -2.04958,17.72338 -0.15982,8.26215 -0.27818,9.68111 -0.91101,10.92147 -0.79595,1.56017 -1.80219,1.72146 -5.07127,0.81294 -2.80035,-0.77828 -3.34725,-0.786 -3.43191,-0.0485 -0.0504,0.43857 0.25693,0.81724 2.28645,2.81754 2.88607,2.84454 3.36735,3.6068 3.51234,5.56313 0.11329,1.52916 0.35751,1.9285 1.17941,1.9285 0.64386,0 0.90506,0.45722 0.56107,0.98221 -0.36504,0.55713 -1.96358,1.33734 -3.02762,1.47767 -2.07034,0.27308 -2.05968,0.35182 0.15702,1.15787 1.94244,0.70633 2.8837,1.26291 3.74148,2.21226 1.60761,1.77946 1.80605,3.683 0.57692,5.53429 -0.73448,1.10622 -0.74798,1.54202 -0.0477,1.54202 1.29163,0 1.74478,1.67722 1.03136,3.81741 -0.52357,1.57059 -1.55576,3.27501 -2.88212,4.75932 -2.08221,2.33014 -2.39892,2.91862 -1.6728,3.10859 0.86694,0.22672 2.49653,-0.40783 3.80815,-1.48283 1.70176,-1.39478 2.19526,-1.58991 2.19526,-0.86807 0,1.56808 -5.31576,5.72267 -7.90735,6.17987 -0.39687,0.07 -0.8586,-0.0689 -1.69598,-0.51035 z" /><path
         id="path4319"
         style="color:#000000;fill:#373737;fill-opacity:1;stroke-width:0.264583"
         d="m 355.96818,198.71313 c -0.88638,-0.32197 -3.37265,-0.7144 -5.94307,-0.9381 -2.43055,-0.21153 -5.14377,-0.44786 -6.02959,-0.5252 -0.88567,-0.0774 -1.78057,5.3e-4 -1.98864,0.17336 -1.13892,0.94522 -6.32857,0.59102 -13.76521,-0.93949 l -3.34486,-0.68836 0.0896,-1.41597 c 0.0661,-1.04585 -0.046,-1.52385 -0.42907,-1.82865 -2.19663,-1.74781 -2.87602,-2.64768 -2.87285,-3.8055 0.006,-2.3146 0.64876,-8.48571 1.07495,-10.32351 0.23853,-1.02849 0.57515,-3.48377 0.74808,-5.45624 0.17292,-1.97249 0.45159,-3.84281 0.61929,-4.15607 0.17227,-0.32189 0.80039,-0.65866 1.44407,-0.7742 0.62656,-0.11247 2.09354,-0.38219 3.25993,-0.59936 1.19277,-0.22208 2.32693,-0.28453 2.59188,-0.14274 0.49324,0.26397 5.04084,-0.0113 10.22112,-0.61875 3.90075,-0.45739 10.34786,-0.16024 13.75384,0.63391 3.73936,0.87193 4.55798,0.81137 5.7105,-0.42246 2.71384,-2.90539 4.47517,-2.26941 2.2922,0.82762 -1.14814,1.62885 -1.45844,3.08716 -1.47588,6.93552 -0.0209,4.58152 -1.03917,11.25617 -3.45572,22.64754 -0.21069,0.99322 -0.51668,1.84285 -0.67993,1.88804 -0.16327,0.0452 -0.98258,-0.16691 -1.8207,-0.47133 z" /><path
         id="path4323"
         style="color:#000000;fill:#373737;fill-opacity:1;stroke-width:0.264583"
         d="m 372.26916,180.74263 c -3.24327,-1.04026 -3.7256,-1.8497 -3.99495,-6.70454 -0.15682,-2.82548 -0.39267,-4.31932 -0.89088,-5.64303 -0.87566,-2.32654 -2.82019,-4.33388 -4.4569,-4.60058 -2.00502,-0.32676 -2.54162,-0.6636 -2.53757,-1.59297 0.003,-0.80635 0.17971,-0.90684 3.88594,-2.21613 4.72493,-1.66923 6.81116,-2.63385 9.19136,-4.25026 1.00078,-0.67961 2.16476,-1.23566 2.58664,-1.23566 0.42188,0 2.15392,-0.2953 3.8489,-0.65625 l 3.08186,-0.65624 1.57745,0.64029 c 0.86759,0.35216 1.98443,0.68175 2.4819,0.73244 1.0682,0.10884 1.95005,1.27188 2.92205,3.85392 1.50532,3.99865 2.42126,8.98631 2.42126,13.18499 0,4.15237 -0.93626,5.32606 -5.08688,6.37725 -2.67785,0.6782 -4.05633,1.18491 -4.05633,1.49095 0,0.11376 0.14912,0.35595 0.33134,0.53816 0.2386,0.23859 0.21728,0.40495 -0.0762,0.59431 -0.52769,0.34052 -10.228,0.46427 -11.22892,0.14325 z" /><path
         id="path4325"
         style="color:#000000;fill:#373737;fill-opacity:1;stroke-width:0.264583"
         d="m 386.59634,265.99138 c -0.7543,-0.16159 -2.26293,-0.55213 -3.35253,-0.86786 -1.08956,-0.31573 -3.28084,-0.86185 -4.86939,-1.21356 -2.18364,-0.48348 -3.93118,-1.16655 -7.16201,-2.79956 -5.35755,-2.70774 -6.57331,-3.54065 -8.05524,-5.51947 -1.45309,-1.94027 -4.66222,-8.29099 -5.34353,-10.5746 -1.29151,-4.32912 -1.98659,-14.1105 -1.41861,-19.96255 0.44347,-4.56909 0.98118,-6.63681 3.36841,-12.95268 3.22051,-8.52038 3.64278,-10.40421 3.66104,-16.32611 0.0124,-4.05024 0.553,-5.86211 2.15902,-7.23689 1.72718,-1.47841 3.81609,-2.18649 10.46719,-3.54832 6.58812,-1.34885 6.74026,-1.39356 7.85071,-2.30765 2.49825,-2.05634 9.6438,-0.43796 13.03391,2.95196 1.58787,1.58787 3.87773,4.85749 6.58283,9.39959 3.68009,6.17908 5.52635,8.26029 8.48995,9.57103 2.04301,0.90353 3.23453,2.70696 5.3549,8.10578 5.40756,13.76812 5.18795,19.02857 -1.20068,28.76285 -1.4987,2.28365 -2.83236,4.14735 -2.96386,4.14153 -0.13144,-0.006 -1.36424,-1.89154 -2.7395,-4.19074 -1.37535,-2.29907 -3.19272,-4.99745 -4.03886,-5.99625 -1.06191,-1.25378 -1.42007,-1.8786 -1.15665,-2.01777 0.20989,-0.11087 1.28249,-0.36732 2.3836,-0.56991 1.10112,-0.20258 2.17366,-0.4744 2.38347,-0.60407 0.25361,-0.15672 -0.36639,-0.70202 -1.84962,-1.62682 -2.93502,-1.82991 -3.85445,-2.79691 -3.38084,-3.5552 0.44585,-0.71393 0.22195,-0.93321 -0.95811,-0.93843 -1.33215,-0.006 -2.31119,-0.31252 -2.31119,-0.72387 0,-0.1937 0.39039,-0.82915 0.86754,-1.41213 1.5498,-1.89355 1.66381,-2.30029 0.80275,-2.86438 -0.70708,-0.46329 -0.75597,-0.66368 -0.75597,-3.09695 0,-1.68413 -0.10919,-2.53402 -0.30967,-2.41014 -0.17031,0.10526 -0.97605,1.17623 -1.79051,2.37998 -0.81447,1.20372 -1.76139,2.43996 -2.10426,2.74717 -0.60447,0.54165 -0.63193,0.54165 -0.90398,0 -0.1543,-0.30724 -0.19637,-1.48437 -0.0935,-2.61583 0.10287,-1.13147 0.10575,-2.05722 0.006,-2.05722 -0.0994,0 -0.75488,0.63905 -1.45674,1.42013 -0.70186,0.78107 -1.37801,1.31836 -1.50252,1.19403 -0.12457,-0.12435 -0.30247,-1.07198 -0.39539,-2.10587 -0.16632,-1.85039 -0.17505,-1.86547 -0.55896,-0.96544 -0.21453,0.50287 -0.46778,1.92088 -0.56285,3.15119 -0.18227,2.35879 -0.57076,2.90989 -1.50842,2.14027 -0.73067,-0.59984 -2.41286,-4.3778 -3.01281,-6.76646 -0.28347,-1.12855 -0.5811,-1.98625 -0.66138,-1.90597 -0.0803,0.0803 -0.25362,1.12678 -0.38523,2.3256 -0.1316,1.1988 -0.37851,2.31892 -0.54872,2.4891 -0.20944,0.20943 -0.75549,0.002 -1.68939,-0.63995 -0.88966,-0.61211 -1.45251,-0.83198 -1.58422,-0.61891 -0.11237,0.18178 -0.10999,1.2111 0.005,2.28737 0.11526,1.07627 0.13272,1.95686 0.0388,1.95686 -0.0939,0 -0.93906,-0.49149 -1.87815,-1.09223 -0.93908,-0.60073 -1.78469,-1.01496 -1.87915,-0.92051 -0.36089,0.36089 1.53747,2.69769 3.19088,3.92774 0.95009,0.70684 2.26451,1.7998 2.921,2.42882 1.11416,1.06768 1.16409,1.18798 0.75094,1.8102 -0.29681,0.44702 -1.03275,0.80055 -2.23486,1.07358 -2.32185,0.52731 -5.17445,2.11042 -7.9711,4.42383 -1.22973,1.01719 -2.19916,1.87571 -2.15429,1.90783 0.2772,0.19845 6.02589,-0.50091 7.61524,-0.92644 3.21177,-0.85992 3.3438,-0.87196 3.64569,-0.33266 0.39656,0.70858 1.67452,0.62172 3.84837,-0.26161 2.26586,-0.92069 2.79849,-0.9407 4.0894,-0.15352 0.54882,0.33462 1.51765,0.60891 2.15291,0.60955 2.52106,0.002 5.23293,2.46237 6.16135,5.58879 0.58259,1.96183 0.57388,2.94164 -0.0397,4.47543 -0.58624,1.46515 -1.45105,1.97067 -3.82958,2.2384 -3.92456,0.4418 -4.3471,1.37319 -1.30341,2.87417 1.09529,0.54012 2.07068,1.18845 2.16749,1.44076 0.24532,0.63934 -0.39357,1.31133 -1.93612,2.03642 -1.61483,0.75906 -1.81004,1.04447 -1.18599,1.73405 0.71054,0.78515 0.61441,1.10268 -0.64913,2.14421 -0.62489,0.51509 -0.99171,0.93649 -0.81518,0.93649 0.17653,0 1.72492,-0.42002 3.44091,-0.93339 1.71595,-0.51338 3.24511,-0.89054 3.39804,-0.83813 0.15301,0.0524 -0.14867,0.75073 -0.67038,1.55187 -1.5739,2.41678 -0.78705,2.17683 3.05383,-0.93131 1.17506,-0.95089 1.85793,-1.29522 2.43556,-1.22809 1.13409,0.13177 1.13739,0.83457 0.0124,2.64414 -0.53679,0.86349 -0.89313,1.65282 -0.7919,1.75408 0.10123,0.10125 0.82566,-0.1745 1.60981,-0.61277 3.32554,-1.85862 3.41444,-0.53436 0.1719,2.55563 -3.45784,3.29512 -7.22419,5.3766 -11.03577,6.09971 -1.95837,0.37139 -7.27367,0.33734 -9.12125,-0.0585 v 0 z" /></g></g></svg>
