<?xml version="1.0" encoding="UTF-8" standalone="no"?>
<!-- Created with Inkscape (http://www.inkscape.org/) -->

<svg
   width="142.57025"
   height="95.04702"
   viewBox="0 0 37.721712 25.147857"
   version="1.1"
   id="svg5"
   xml:space="preserve"
   xmlns="http://www.w3.org/2000/svg"
   xmlns:svg="http://www.w3.org/2000/svg"><defs
     id="defs2" /><g
     id="layer1"
     transform="translate(-368.75401,-258.939)"><path
       d="m 381.32786,269.15527 c 0,1.29982 -1.05775,2.35757 -2.35757,2.35757 -1.29983,0 -2.35764,-1.05775 -2.35764,-2.35757 0,-1.29982 1.05781,-2.35763 2.35764,-2.35763 1.29982,0 2.35757,1.05781 2.35757,2.35763 z m 25.14783,9.76991 c 0,2.49433 -0.8802,4.07234 -2.74899,4.99655 -0.22455,0.11168 -0.46513,0.16514 -0.70572,0.16514 -0.38019,0 -0.75758,-0.13662 -1.05621,-0.40097 l -4.88654,-4.31441 c -0.87703,-0.77647 -1.64085,-1.57802 -3.77846,-1.57802 h -11.36836 c -2.13754,0 -2.90296,0.80155 -3.77846,1.57802 l -4.88807,4.31441 c -0.29524,0.26375 -0.67431,0.40097 -1.05622,0.40097 -0.2388,0 -0.48236,-0.0535 -0.70572,-0.16514 -1.8688,-0.92421 -2.74893,-2.50222 -2.74893,-4.995 0,-3.24092 1.48529,-8.58326 4.21378,-15.49263 1.29198,-3.27388 3.60245,-4.49511 5.80759,-4.49511 1.03109,0 2.04012,0.26732 2.91241,0.71671 3.80989,1.96307 8.12591,1.92221 11.85721,0 0.86914,-0.44969 1.87823,-0.71671 2.90926,-0.71671 2.20514,0 4.51715,1.22123 5.80914,4.49511 2.72694,6.90783 4.21229,12.25017 4.21229,15.49108 z m -23.57605,-9.76991 c 0,-2.17057 -1.75878,-3.92935 -3.92935,-3.92935 -2.17058,0 -3.92935,1.75878 -3.92935,3.92935 0,2.17057 1.75877,3.92935 3.92935,3.92935 2.17057,0 3.92935,-1.75878 3.92935,-3.92935 z m 6.28693,-3.92935 c 0,-0.8676 -0.70257,-1.57171 -1.57173,-1.57171 -0.86919,0 -1.57177,0.70411 -1.57177,1.57171 0,0.86759 0.70258,1.57172 1.57177,1.57172 0.86916,0 1.57173,-0.70413 1.57173,-1.57172 z m 5.50107,3.92935 c 0,-0.65226 -0.52811,-1.17882 -1.17882,-1.17882 -0.65066,0 -1.17876,0.52632 -1.17876,1.17882 0,0.65226 0.5281,1.17876 1.17876,1.17876 0.65071,0 1.17882,-0.52632 1.17882,-1.17876 z m 2.75053,2.75053 c 0,-0.65225 -0.5281,-1.17881 -1.17882,-1.17881 -0.65065,0 -1.17875,0.52632 -1.17875,1.17881 0,0.65226 0.5281,1.17882 1.17875,1.17882 0.65072,0 1.17882,-0.52632 1.17882,-1.17882 z m 0,-5.54984 c 0,-0.65225 -0.5281,-1.17876 -1.17882,-1.17876 -0.65065,0 -1.17875,0.52633 -1.17875,1.17876 0,0.65232 0.5281,1.17882 1.17875,1.17882 0.65072,0 1.17882,-0.52811 1.17882,-1.17882 z m 2.7254,2.79931 c 0,-0.65226 -0.5281,-1.17882 -1.17881,-1.17882 -0.65071,0 -1.17882,0.52632 -1.17882,1.17882 0,0.65226 0.52811,1.17876 1.17882,1.17876 0.65071,0 1.17881,-0.52632 1.17881,-1.17876 z"
       id="path9794"
       style="fill:#232323;fill-opacity:1;stroke-width:1.57173" /></g></svg>
