<?xml version="1.0" encoding="UTF-8" standalone="no"?>
<!-- Created with Inkscape (http://www.inkscape.org/) -->

<svg
   width="394.32056"
   height="1061.2795"
   viewBox="0 0 104.33065 280.79688"
   version="1.1"
   id="svg5"
   xml:space="preserve"
   xmlns="http://www.w3.org/2000/svg"
   xmlns:svg="http://www.w3.org/2000/svg"><defs
     id="defs2" /><g
     id="layer1"
     transform="translate(-4.4375034,-2.7797506)"><g
       id="g12784"
       transform="matrix(0.30757089,-0.30367732,0.30367732,0.30757089,-99.195692,156.07112)">
	<path
   fill-rule="evenodd"
   clip-rule="evenodd"
   d="m 512.363,7.555 c 0.446,3.076 1.42,6.219 -1.441,8.889 2.215,2.548 2.4,5.316 1.33,8.303 -0.171,0.496 0.111,1.228 0.342,1.787 1.538,3.875 1.048,6.266 -1.969,9.288 -3.232,3.238 -6.479,6.466 -9.689,9.727 -2.771,2.797 -2.749,2.814 -0.089,5.517 0.803,0.8 1.583,1.606 2.444,2.474 1.056,-0.602 1.947,-1.512 2.846,-1.514 1.241,-0.004 2.802,0.349 3.634,1.157 0.579,0.566 0.654,2.55 0.111,3.215 -1.791,2.194 -3.819,4.25 -6.063,5.972 -0.684,0.525 -2.697,0.203 -3.425,-0.47 -0.758,-0.696 -0.943,-2.296 -0.877,-3.481 0.037,-0.821 0.914,-1.601 1.501,-2.545 -1.575,-1.598 -3.143,-3.186 -4.845,-4.912 -4.005,3.957 -7.958,7.858 -12.052,11.895 1.664,1.694 3.173,3.225 4.859,4.932 0.646,-0.448 1.308,-1.276 1.999,-1.306 1.382,-0.058 3.12,-0.123 4.123,0.618 1.464,1.087 1.212,2.924 -0.015,4.302 -1.263,1.421 -2.638,2.755 -4.042,4.029 -1.464,1.312 -3.083,2.452 -5.016,0.773 -1.887,-1.648 -1.122,-3.387 -0.029,-5.084 0.253,-0.383 0.527,-0.743 0.84,-1.185 -1.62,-1.642 -3.129,-3.175 -4.838,-4.906 -3.989,3.94 -7.898,7.794 -11.963,11.801 1.523,1.54 3.151,3.195 4.86,4.932 0.705,-0.457 1.389,-1.267 2.109,-1.295 1.375,-0.046 3.3,-0.107 3.976,0.697 0.661,0.788 0.558,2.958 -0.082,3.962 -1.151,1.807 -2.897,3.258 -4.503,4.74 -1.322,1.228 -2.786,2.042 -4.524,0.491 -1.665,-1.482 -1.776,-3.024 -0.453,-4.755 0.334,-0.446 0.631,-0.927 1.025,-1.518 -1.694,-1.715 -3.321,-3.375 -5.075,-5.138 -13.159,10.417 -28.993,17.034 -40.532,29.489 -6.665,7.183 -12.862,14.797 -19.356,22.133 -4.168,4.7 -8.426,9.319 -12.766,13.854 -34.559,36.083 -69.146,72.137 -103.728,108.197 -0.394,0.418 -0.75,0.888 -1.196,1.233 -2.095,1.627 -1.709,3.005 -0.015,4.841 7.223,7.807 13.278,16.516 17.58,26.193 3.218,7.241 5.135,14.92 5.298,23.108 0.142,6.84 -1.01,13.338 -3.381,19.475 -3.351,8.679 -8.5,16.455 -15.818,22.392 -6.123,4.967 -12.424,9.774 -19,14.125 -13.798,9.125 -26.479,19.371 -34.69,34.038 -3.353,6.008 -5.834,12.543 -8.348,18.978 -3.208,8.211 -6.03,16.569 -9.045,24.854 -4.142,11.401 -9.539,22.254 -16.514,32.099 -8.132,11.465 -17.686,21.756 -30.517,28.266 -6.895,3.499 -14.236,5.599 -21.901,6.933 -9.619,1.664 -19.278,2.039 -28.781,0.486 -7.104,-1.163 -13.982,-3.92 -20.846,-6.305 -9.156,-3.188 -17.159,-8.611 -24.957,-14.177 -5.795,-4.136 -10.989,-9.117 -16.46,-13.709 -1.31,-1.097 -2.656,-2.144 -3.984,-3.218 -6.698,-6.791 -13.395,-13.583 -20.093,-20.366 -0.656,-0.922 -1.258,-1.895 -1.98,-2.757 C 28.951,440.289 21.47,431.592 15.621,421.549 9.294,410.701 4.438,399.34 2.443,386.984 0.582,375.466 1.429,363.95 4.063,352.492 c 2.051,-8.938 5.48,-17.097 10.729,-24.59 11.437,-16.336 27.646,-26.493 45.29,-34.548 8.077,-3.686 16.765,-6.019 25.1,-9.161 8.688,-3.288 17.366,-6.613 25.902,-10.284 14.177,-6.085 24.882,-16.504 33.515,-28.924 8.443,-12.152 16.839,-24.197 28.391,-33.73 7.614,-6.282 16.486,-9.472 25.971,-10.692 5.045,-0.646 10.432,-0.145 15.458,0.875 5.606,1.137 11.179,3 16.408,5.341 9.632,4.306 17.864,10.82 25.584,17.952 1.107,1.031 1.914,1.183 3.098,0.044 2.822,-2.703 5.816,-5.212 8.647,-7.898 28.874,-27.323 57.533,-54.873 86.66,-81.927 14.942,-13.876 30.769,-26.783 46.031,-40.31 5.052,-4.475 10.104,-9.121 14.251,-14.395 7.564,-9.622 14.481,-19.759 21.607,-29.729 0.431,-0.615 0.706,-1.973 0.342,-2.435 -1.248,-1.605 -2.802,-2.976 -4.19,-4.38 -3.426,2.502 -4.964,2.504 -6.68,0.275 -1.509,-1.961 -0.996,-3.481 1.872,-5.92 0.78,-0.67 1.382,-1.559 2.117,-2.291 1.598,-1.562 3.492,-2.25 5.388,-0.834 1.969,1.471 1.73,3.422 0.408,5.303 -0.305,0.429 -0.624,0.849 -0.914,1.237 1.694,1.715 3.21,3.256 4.555,4.618 4.072,-4.009 8.025,-7.916 12.03,-11.866 -1.702,-1.733 -3.099,-3.143 -4.563,-4.631 -0.587,0.452 -1.055,0.931 -1.627,1.223 -1.769,0.929 -3.515,1.005 -4.867,-0.727 -1.337,-1.703 -0.906,-3.464 0.356,-4.945 1.241,-1.434 2.66,-2.708 4.058,-3.981 1.627,-1.467 3.715,-1.35 4.844,0.097 0.84,1.063 0.58,3.067 0.588,4.651 0,0.5 -0.751,1 -1.204,1.555 1.53,1.547 2.965,3 4.637,4.698 4.087,-4.029 8.039,-7.926 12.081,-11.918 -1.567,-1.596 -3.091,-3.13 -4.644,-4.707 -0.476,0.362 -0.84,0.641 -1.211,0.933 -1.947,1.538 -3.715,1.231 -5.224,-0.598 -1.516,-1.841 -0.892,-3.546 0.595,-5.064 1.256,-1.287 2.496,-2.603 3.878,-3.754 1.501,-1.261 3.181,-1.714 4.904,-0.269 1.68,1.416 1.739,3.058 0.632,4.835 -0.335,0.544 -0.743,1.048 -1.233,1.729 1.151,1.159 2.281,2.175 3.247,3.333 1.166,1.38 2.095,1.501 3.484,0.147 3.418,-3.327 7.55,-6.067 10.328,-9.84 3.901,-5.266 8.887,-2.363 13.39,-2.859 1.68,-0.186 3.478,0.565 5.216,0.916 0.171,0.032 0.283,0.323 0.438,0.351 0.572,0.097 1.33,0.397 1.709,0.148 2.578,-1.72 5.298,-1.53 8.1,-0.845 0.938,0.954 1.875,1.903 2.818,2.854 z M 103.61,407.987 c -0.019,0.019 -0.037,0.037 -0.062,0.056 5.157,5.228 10.304,10.458 15.464,15.671 5.424,5.483 10.757,11.063 16.334,16.384 5.638,5.383 13.612,2.957 15.923,-4.28 1.471,-4.618 -0.709,-7.489 -3.505,-10.328 -20.324,-20.642 -40.676,-41.265 -61.035,-61.872 -1.066,-1.078 -2.25,-2.059 -3.496,-2.932 -2.467,-1.728 -7.771,-1.2 -10.191,0.595 -5.073,3.764 -4.971,10.841 -0.598,15.184 10.489,10.409 20.787,21.001 31.166,31.522 z m 77.116,-132.78 c -15.979,16.313 -16.07,41.279 -0.409,57.169 15.225,15.451 40.343,16.544 56.885,0.305 15.778,-15.485 16.291,-40.51 0.564,-56.66 -16.023,-16.455 -41.091,-15.892 -57.04,-0.814 z M 464.534,69.505 c 3.813,-3.763 7.379,-7.276 10.96,-10.805 -1.887,-1.914 -3.589,-3.639 -5.313,-5.383 -3.723,3.67 -7.289,7.188 -10.952,10.807 1.835,1.869 3.544,3.593 5.305,5.381 z m -6.657,-28.751 c -3.782,3.739 -7.394,7.296 -10.938,10.792 1.872,1.908 3.581,3.631 5.328,5.407 3.729,-3.676 7.289,-7.187 10.944,-10.794 -1.774,-1.805 -3.425,-3.477 -5.334,-5.405 z m 4.05,-4.068 c 1.924,1.949 3.626,3.673 5.395,5.463 3.18,-3.143 6.249,-6.164 9.488,-9.366 -1.479,-1.506 -2.705,-2.981 -4.184,-4.122 -0.535,-0.413 -2.021,-0.387 -2.511,0.056 -2.742,2.476 -5.32,5.138 -8.188,7.969 z m 27.083,8.495 c -1.642,-1.655 -3.023,-3.193 -4.584,-4.555 -0.379,-0.333 -1.553,-0.36 -1.902,-0.033 -2.891,2.697 -5.669,5.504 -8.493,8.294 2.155,2.19 3.85,3.91 5.528,5.612 3.187,-3.142 6.204,-6.118 9.451,-9.318 z m 3.722,-3.743 c 2.267,-2.238 4.332,-4.298 6.42,-6.329 1.643,-1.597 1.806,-3.26 0.26,-4.982 -1.508,-1.675 -3.507,-2.365 -5.29,-0.931 -2.467,1.975 -4.569,4.388 -6.88,6.676 1.917,1.943 3.567,3.615 5.49,5.566 z M 480.8,29.265 c 2.325,-2.291 4.48,-4.284 6.472,-6.431 1.353,-1.46 1.664,-3.184 0.193,-4.841 -1.404,-1.59 -3.321,-2.377 -5.016,-1.008 -2.526,2.028 -4.696,4.504 -7.037,6.819 1.859,1.89 3.5,3.549 5.388,5.461 z m -19.988,44.027 c -1.872,-1.891 -3.61,-3.658 -5.335,-5.41 -3.923,3.327 -4.495,5.476 -2.184,7.772 2.221,2.207 4.19,1.627 7.519,-2.362 z M 443.046,55.161 c -1.969,1.698 -4.339,3.082 -3.254,5.9 0.497,1.296 2.006,2.901 3.231,3.072 2.43,0.336 4.013,-1.542 5.32,-3.607 -1.775,-1.8 -3.432,-3.483 -5.297,-5.365 z"
   id="path12776"
   style="fill:#373737;fill-opacity:1" />
	<path
   fill-rule="evenodd"
   clip-rule="evenodd"
   fill="#b42a25"
   d="M 103.61,407.987 C 93.232,397.466 82.933,386.874 72.445,376.464 c -4.373,-4.343 -4.475,-11.42 0.598,-15.184 2.42,-1.795 7.724,-2.322 10.191,-0.595 1.247,0.873 2.43,1.854 3.496,2.932 20.359,20.607 40.71,41.23 61.035,61.872 2.795,2.839 4.976,5.71 3.505,10.328 -2.311,7.237 -10.285,9.663 -15.923,4.28 -5.577,-5.32 -10.91,-10.9 -16.334,-16.384 -5.16,-5.213 -10.308,-10.443 -15.464,-15.671 0.024,-0.018 0.042,-0.036 0.061,-0.055 z"
   id="path12778"
   style="fill:#232323;fill-opacity:1" />
	<path
   fill-rule="evenodd"
   clip-rule="evenodd"
   fill="#b42a25"
   d="m 180.726,275.207 c 15.949,-15.078 41.017,-15.641 57.041,0.813 15.727,16.15 15.214,41.175 -0.564,56.66 -16.542,16.239 -41.66,15.146 -56.885,-0.305 -15.663,-15.889 -15.571,-40.854 0.408,-57.168 z m 2.684,54.468 c 14.603,14.363 37.495,14.085 51.533,-0.497 14.114,-14.649 13.712,-36.665 -0.578,-50.861 -14.928,-14.823 -37.923,-13.627 -51.607,0.665 -13.609,14.203 -13.277,36.895 0.652,50.693 z"
   id="path12780"
   style="fill:#232323;fill-opacity:1" />
	<path
   fill-rule="evenodd"
   clip-rule="evenodd"
   d="m 183.41,329.675 c -13.928,-13.798 -14.261,-36.49 -0.652,-50.693 13.685,-14.292 36.68,-15.488 51.607,-0.665 14.29,14.196 14.691,36.212 0.578,50.861 -14.038,14.582 -36.931,14.86 -51.533,0.497 z m 46.66,-4.049 c 12.344,-11.328 11.875,-31.557 0.684,-42.799 -11.64,-11.703 -30.594,-12.42 -42.957,-0.142 -12.039,11.967 -11.978,30.401 -0.36,42.479 11.4,11.853 31.228,12.194 42.633,0.462 z"
   id="path12782"
   style="fill:#373737;fill-opacity:1" />
</g></g></svg>
