<?xml version="1.0" encoding="UTF-8" standalone="no"?>
<!-- Created with Inkscape (http://www.inkscape.org/) -->

<svg
   width="1920"
   height="1080"
   viewBox="0 0 507.99999 285.75"
   version="1.1"
   id="svg5"
   xml:space="preserve"
   inkscape:version="1.2 (dc2aedaf03, 2022-05-15)"
   sodipodi:docname="icons.svg"
   xmlns:inkscape="http://www.inkscape.org/namespaces/inkscape"
   xmlns:sodipodi="http://sodipodi.sourceforge.net/DTD/sodipodi-0.dtd"
   xmlns="http://www.w3.org/2000/svg"
   xmlns:svg="http://www.w3.org/2000/svg"><sodipodi:namedview
     id="namedview7"
     pagecolor="#505050"
     bordercolor="#eeeeee"
     borderopacity="1"
     inkscape:showpageshadow="0"
     inkscape:pageopacity="0"
     inkscape:pagecheckerboard="0"
     inkscape:deskcolor="#505050"
     inkscape:document-units="mm"
     showgrid="false"
     showguides="true"
     inkscape:zoom="0.7"
     inkscape:cx="832.85714"
     inkscape:cy="782.14286"
     inkscape:window-width="1920"
     inkscape:window-height="1051"
     inkscape:window-x="-9"
     inkscape:window-y="-9"
     inkscape:window-maximized="1"
     inkscape:current-layer="layer1"><sodipodi:guide
       position="0,285.75"
       orientation="0,1920"
       id="guide10240"
       inkscape:locked="false" /><sodipodi:guide
       position="508,285.75"
       orientation="1080,0"
       id="guide10242"
       inkscape:locked="false" /><sodipodi:guide
       position="508,0"
       orientation="0,-1920"
       id="guide10244"
       inkscape:locked="false" /><sodipodi:guide
       position="0,0"
       orientation="-1080,0"
       id="guide10246"
       inkscape:locked="false" /><sodipodi:guide
       position="255.2424,30.240331"
       orientation="1,0"
       id="guide1278"
       inkscape:locked="false" /></sodipodi:namedview><defs
     id="defs2"><clipPath
       clipPathUnits="userSpaceOnUse"
       id="clipPath1354"><path
         style="fill:none;stroke:#ffffff;stroke-width:0.4699;stroke-opacity:1"
         d="m -132.77072,118.91372 c 6.25422,-2.28319 13.41345,-4.05934 20.10833,-6.08542 l 146.05,-31.220837 c 0,0 8.962871,-1.89592 13.49375,-1.719789 4.182581,0.162589 12.295611,2.549781 12.295611,2.549781 L 161.71053,103.70017 c 0,0 2.77577,0.92057 3.30729,2.11667 0.76248,1.71584 0.008,3.92737 -0.92604,5.55625 -1.37049,2.39026 -4.58976,3.17197 -6.35,5.29167 -1.90447,2.29339 -2.32659,5.63058 -4.36563,7.80521 -0.61074,0.65135 -1.47362,1.01234 -2.24895,1.45521 -0.51373,0.29344 -1.16557,0.37903 -1.5875,0.79375 -0.81586,0.80191 -0.77269,2.23972 -1.5875,3.0427 -5.37979,5.30165 -13.57863,6.62733 -20.24063,10.18646 -16.5812,8.8584 -33.019081,18.01154 -49.08021,27.78125 -14.48316,8.80986 -27.499419,20.07338 -42.597909,27.78125 -8.118221,4.1444 -16.763241,7.30256 -25.532292,9.78958 -8.4619674,2.39992 -17.5100638,2.34859 -25.929169,4.8948 -2.704679,0.81798 -4.98566,3.12146 -7.805208,3.30729 -1.323716,0.0872 -2.5102,-1.02885 -3.836461,-1.05834 -1.582815,-0.0352 -3.060788,1.26683 -4.630206,1.05834 -4.654174,-0.61828 -12.435417,-6.61459 -12.435417,-6.61459 l -12.832291,-11.90625 -35.71875,-30.42708 -32.014587,-29.36875 c 0,0 -3.55093,-2.96752 -4.7625,-4.89479 -1.02461,-1.62988 -2.21224,-3.51231 -1.98437,-5.42396 0.0565,-0.47363 0.79375,-1.19062 0.79375,-1.19062 0,0 -2.81229,-3.44132 -2.11667,-4.7625 z"
         id="path1356"
         sodipodi:nodetypes="cccsccsssssssasssssssccccsscc" /></clipPath></defs><g
     inkscape:label="Capa 1"
     inkscape:groupmode="layer"
     id="layer1"><g
       id="g12784"
       transform="matrix(0.30757089,-0.30367732,0.30367732,0.30757089,-99.195692,156.07112)"
       inkscape:export-filename="guitar.svg"
       inkscape:export-xdpi="50"
       inkscape:export-ydpi="50">
	<path
   fill-rule="evenodd"
   clip-rule="evenodd"
   d="m 512.363,7.555 c 0.446,3.076 1.42,6.219 -1.441,8.889 2.215,2.548 2.4,5.316 1.33,8.303 -0.171,0.496 0.111,1.228 0.342,1.787 1.538,3.875 1.048,6.266 -1.969,9.288 -3.232,3.238 -6.479,6.466 -9.689,9.727 -2.771,2.797 -2.749,2.814 -0.089,5.517 0.803,0.8 1.583,1.606 2.444,2.474 1.056,-0.602 1.947,-1.512 2.846,-1.514 1.241,-0.004 2.802,0.349 3.634,1.157 0.579,0.566 0.654,2.55 0.111,3.215 -1.791,2.194 -3.819,4.25 -6.063,5.972 -0.684,0.525 -2.697,0.203 -3.425,-0.47 -0.758,-0.696 -0.943,-2.296 -0.877,-3.481 0.037,-0.821 0.914,-1.601 1.501,-2.545 -1.575,-1.598 -3.143,-3.186 -4.845,-4.912 -4.005,3.957 -7.958,7.858 -12.052,11.895 1.664,1.694 3.173,3.225 4.859,4.932 0.646,-0.448 1.308,-1.276 1.999,-1.306 1.382,-0.058 3.12,-0.123 4.123,0.618 1.464,1.087 1.212,2.924 -0.015,4.302 -1.263,1.421 -2.638,2.755 -4.042,4.029 -1.464,1.312 -3.083,2.452 -5.016,0.773 -1.887,-1.648 -1.122,-3.387 -0.029,-5.084 0.253,-0.383 0.527,-0.743 0.84,-1.185 -1.62,-1.642 -3.129,-3.175 -4.838,-4.906 -3.989,3.94 -7.898,7.794 -11.963,11.801 1.523,1.54 3.151,3.195 4.86,4.932 0.705,-0.457 1.389,-1.267 2.109,-1.295 1.375,-0.046 3.3,-0.107 3.976,0.697 0.661,0.788 0.558,2.958 -0.082,3.962 -1.151,1.807 -2.897,3.258 -4.503,4.74 -1.322,1.228 -2.786,2.042 -4.524,0.491 -1.665,-1.482 -1.776,-3.024 -0.453,-4.755 0.334,-0.446 0.631,-0.927 1.025,-1.518 -1.694,-1.715 -3.321,-3.375 -5.075,-5.138 -13.159,10.417 -28.993,17.034 -40.532,29.489 -6.665,7.183 -12.862,14.797 -19.356,22.133 -4.168,4.7 -8.426,9.319 -12.766,13.854 -34.559,36.083 -69.146,72.137 -103.728,108.197 -0.394,0.418 -0.75,0.888 -1.196,1.233 -2.095,1.627 -1.709,3.005 -0.015,4.841 7.223,7.807 13.278,16.516 17.58,26.193 3.218,7.241 5.135,14.92 5.298,23.108 0.142,6.84 -1.01,13.338 -3.381,19.475 -3.351,8.679 -8.5,16.455 -15.818,22.392 -6.123,4.967 -12.424,9.774 -19,14.125 -13.798,9.125 -26.479,19.371 -34.69,34.038 -3.353,6.008 -5.834,12.543 -8.348,18.978 -3.208,8.211 -6.03,16.569 -9.045,24.854 -4.142,11.401 -9.539,22.254 -16.514,32.099 -8.132,11.465 -17.686,21.756 -30.517,28.266 -6.895,3.499 -14.236,5.599 -21.901,6.933 -9.619,1.664 -19.278,2.039 -28.781,0.486 -7.104,-1.163 -13.982,-3.92 -20.846,-6.305 -9.156,-3.188 -17.159,-8.611 -24.957,-14.177 -5.795,-4.136 -10.989,-9.117 -16.46,-13.709 -1.31,-1.097 -2.656,-2.144 -3.984,-3.218 -6.698,-6.791 -13.395,-13.583 -20.093,-20.366 -0.656,-0.922 -1.258,-1.895 -1.98,-2.757 C 28.951,440.289 21.47,431.592 15.621,421.549 9.294,410.701 4.438,399.34 2.443,386.984 0.582,375.466 1.429,363.95 4.063,352.492 c 2.051,-8.938 5.48,-17.097 10.729,-24.59 11.437,-16.336 27.646,-26.493 45.29,-34.548 8.077,-3.686 16.765,-6.019 25.1,-9.161 8.688,-3.288 17.366,-6.613 25.902,-10.284 14.177,-6.085 24.882,-16.504 33.515,-28.924 8.443,-12.152 16.839,-24.197 28.391,-33.73 7.614,-6.282 16.486,-9.472 25.971,-10.692 5.045,-0.646 10.432,-0.145 15.458,0.875 5.606,1.137 11.179,3 16.408,5.341 9.632,4.306 17.864,10.82 25.584,17.952 1.107,1.031 1.914,1.183 3.098,0.044 2.822,-2.703 5.816,-5.212 8.647,-7.898 28.874,-27.323 57.533,-54.873 86.66,-81.927 14.942,-13.876 30.769,-26.783 46.031,-40.31 5.052,-4.475 10.104,-9.121 14.251,-14.395 7.564,-9.622 14.481,-19.759 21.607,-29.729 0.431,-0.615 0.706,-1.973 0.342,-2.435 -1.248,-1.605 -2.802,-2.976 -4.19,-4.38 -3.426,2.502 -4.964,2.504 -6.68,0.275 -1.509,-1.961 -0.996,-3.481 1.872,-5.92 0.78,-0.67 1.382,-1.559 2.117,-2.291 1.598,-1.562 3.492,-2.25 5.388,-0.834 1.969,1.471 1.73,3.422 0.408,5.303 -0.305,0.429 -0.624,0.849 -0.914,1.237 1.694,1.715 3.21,3.256 4.555,4.618 4.072,-4.009 8.025,-7.916 12.03,-11.866 -1.702,-1.733 -3.099,-3.143 -4.563,-4.631 -0.587,0.452 -1.055,0.931 -1.627,1.223 -1.769,0.929 -3.515,1.005 -4.867,-0.727 -1.337,-1.703 -0.906,-3.464 0.356,-4.945 1.241,-1.434 2.66,-2.708 4.058,-3.981 1.627,-1.467 3.715,-1.35 4.844,0.097 0.84,1.063 0.58,3.067 0.588,4.651 0,0.5 -0.751,1 -1.204,1.555 1.53,1.547 2.965,3 4.637,4.698 4.087,-4.029 8.039,-7.926 12.081,-11.918 -1.567,-1.596 -3.091,-3.13 -4.644,-4.707 -0.476,0.362 -0.84,0.641 -1.211,0.933 -1.947,1.538 -3.715,1.231 -5.224,-0.598 -1.516,-1.841 -0.892,-3.546 0.595,-5.064 1.256,-1.287 2.496,-2.603 3.878,-3.754 1.501,-1.261 3.181,-1.714 4.904,-0.269 1.68,1.416 1.739,3.058 0.632,4.835 -0.335,0.544 -0.743,1.048 -1.233,1.729 1.151,1.159 2.281,2.175 3.247,3.333 1.166,1.38 2.095,1.501 3.484,0.147 3.418,-3.327 7.55,-6.067 10.328,-9.84 3.901,-5.266 8.887,-2.363 13.39,-2.859 1.68,-0.186 3.478,0.565 5.216,0.916 0.171,0.032 0.283,0.323 0.438,0.351 0.572,0.097 1.33,0.397 1.709,0.148 2.578,-1.72 5.298,-1.53 8.1,-0.845 0.938,0.954 1.875,1.903 2.818,2.854 z M 103.61,407.987 c -0.019,0.019 -0.037,0.037 -0.062,0.056 5.157,5.228 10.304,10.458 15.464,15.671 5.424,5.483 10.757,11.063 16.334,16.384 5.638,5.383 13.612,2.957 15.923,-4.28 1.471,-4.618 -0.709,-7.489 -3.505,-10.328 -20.324,-20.642 -40.676,-41.265 -61.035,-61.872 -1.066,-1.078 -2.25,-2.059 -3.496,-2.932 -2.467,-1.728 -7.771,-1.2 -10.191,0.595 -5.073,3.764 -4.971,10.841 -0.598,15.184 10.489,10.409 20.787,21.001 31.166,31.522 z m 77.116,-132.78 c -15.979,16.313 -16.07,41.279 -0.409,57.169 15.225,15.451 40.343,16.544 56.885,0.305 15.778,-15.485 16.291,-40.51 0.564,-56.66 -16.023,-16.455 -41.091,-15.892 -57.04,-0.814 z M 464.534,69.505 c 3.813,-3.763 7.379,-7.276 10.96,-10.805 -1.887,-1.914 -3.589,-3.639 -5.313,-5.383 -3.723,3.67 -7.289,7.188 -10.952,10.807 1.835,1.869 3.544,3.593 5.305,5.381 z m -6.657,-28.751 c -3.782,3.739 -7.394,7.296 -10.938,10.792 1.872,1.908 3.581,3.631 5.328,5.407 3.729,-3.676 7.289,-7.187 10.944,-10.794 -1.774,-1.805 -3.425,-3.477 -5.334,-5.405 z m 4.05,-4.068 c 1.924,1.949 3.626,3.673 5.395,5.463 3.18,-3.143 6.249,-6.164 9.488,-9.366 -1.479,-1.506 -2.705,-2.981 -4.184,-4.122 -0.535,-0.413 -2.021,-0.387 -2.511,0.056 -2.742,2.476 -5.32,5.138 -8.188,7.969 z m 27.083,8.495 c -1.642,-1.655 -3.023,-3.193 -4.584,-4.555 -0.379,-0.333 -1.553,-0.36 -1.902,-0.033 -2.891,2.697 -5.669,5.504 -8.493,8.294 2.155,2.19 3.85,3.91 5.528,5.612 3.187,-3.142 6.204,-6.118 9.451,-9.318 z m 3.722,-3.743 c 2.267,-2.238 4.332,-4.298 6.42,-6.329 1.643,-1.597 1.806,-3.26 0.26,-4.982 -1.508,-1.675 -3.507,-2.365 -5.29,-0.931 -2.467,1.975 -4.569,4.388 -6.88,6.676 1.917,1.943 3.567,3.615 5.49,5.566 z M 480.8,29.265 c 2.325,-2.291 4.48,-4.284 6.472,-6.431 1.353,-1.46 1.664,-3.184 0.193,-4.841 -1.404,-1.59 -3.321,-2.377 -5.016,-1.008 -2.526,2.028 -4.696,4.504 -7.037,6.819 1.859,1.89 3.5,3.549 5.388,5.461 z m -19.988,44.027 c -1.872,-1.891 -3.61,-3.658 -5.335,-5.41 -3.923,3.327 -4.495,5.476 -2.184,7.772 2.221,2.207 4.19,1.627 7.519,-2.362 z M 443.046,55.161 c -1.969,1.698 -4.339,3.082 -3.254,5.9 0.497,1.296 2.006,2.901 3.231,3.072 2.43,0.336 4.013,-1.542 5.32,-3.607 -1.775,-1.8 -3.432,-3.483 -5.297,-5.365 z"
   id="path12776"
   style="fill:#373737;fill-opacity:1"
   inkscape:export-filename="guitar.svg"
   inkscape:export-xdpi="100"
   inkscape:export-ydpi="100" />
	<path
   fill-rule="evenodd"
   clip-rule="evenodd"
   fill="#b42a25"
   d="M 103.61,407.987 C 93.232,397.466 82.933,386.874 72.445,376.464 c -4.373,-4.343 -4.475,-11.42 0.598,-15.184 2.42,-1.795 7.724,-2.322 10.191,-0.595 1.247,0.873 2.43,1.854 3.496,2.932 20.359,20.607 40.71,41.23 61.035,61.872 2.795,2.839 4.976,5.71 3.505,10.328 -2.311,7.237 -10.285,9.663 -15.923,4.28 -5.577,-5.32 -10.91,-10.9 -16.334,-16.384 -5.16,-5.213 -10.308,-10.443 -15.464,-15.671 0.024,-0.018 0.042,-0.036 0.061,-0.055 z"
   id="path12778"
   style="fill:#232323;fill-opacity:1" />
	<path
   fill-rule="evenodd"
   clip-rule="evenodd"
   fill="#b42a25"
   d="m 180.726,275.207 c 15.949,-15.078 41.017,-15.641 57.041,0.813 15.727,16.15 15.214,41.175 -0.564,56.66 -16.542,16.239 -41.66,15.146 -56.885,-0.305 -15.663,-15.889 -15.571,-40.854 0.408,-57.168 z m 2.684,54.468 c 14.603,14.363 37.495,14.085 51.533,-0.497 14.114,-14.649 13.712,-36.665 -0.578,-50.861 -14.928,-14.823 -37.923,-13.627 -51.607,0.665 -13.609,14.203 -13.277,36.895 0.652,50.693 z"
   id="path12780"
   style="fill:#232323;fill-opacity:1" />
	<path
   fill-rule="evenodd"
   clip-rule="evenodd"
   d="m 183.41,329.675 c -13.928,-13.798 -14.261,-36.49 -0.652,-50.693 13.685,-14.292 36.68,-15.488 51.607,-0.665 14.29,14.196 14.691,36.212 0.578,50.861 -14.038,14.582 -36.931,14.86 -51.533,0.497 z m 46.66,-4.049 c 12.344,-11.328 11.875,-31.557 0.684,-42.799 -11.64,-11.703 -30.594,-12.42 -42.957,-0.142 -12.039,11.967 -11.978,30.401 -0.36,42.479 11.4,11.853 31.228,12.194 42.633,0.462 z"
   id="path12782"
   style="fill:#373737;fill-opacity:1" />
</g><g
       transform="matrix(4.3321603,0,0,4.3321603,114.05133,-4258.987)"
       id="g12808"
       inkscape:export-filename="webs-projects\portfolio-webpage\logo\laptop.svg"
       inkscape:export-xdpi="50"
       inkscape:export-ydpi="50"><rect
         height="1"
         width="24"
         y="1047.4"
         x="0"
         fill="#95a5a6"
         id="rect12796"
         style="fill:#232323;fill-opacity:1"
         inkscape:export-filename=".\laptop.svg"
         inkscape:export-xdpi="100"
         inkscape:export-ydpi="100" /><path
         d="m 4,1033.4 c -0.5523,0 -1,0.4 -1,1 v 1 7 1 1 2 h 2 14 2 v -2 -2 -7 -1 c 0,-0.6 -0.448,-1 -1,-1 H 19 6 5 Z"
         fill="#7f8c8d"
         id="path12798"
         style="fill:#232323;fill-opacity:1" /><path
         d="m 3,1046.4 -3,1 h 3 18 3 l -3,-1 z"
         fill="#bdc3c7"
         id="path12800"
         style="fill:#2d2d2d;fill-opacity:1" /><rect
         height="11"
         width="16"
         y="1034.4"
         x="4"
         fill="#34495e"
         id="rect12804"
         style="fill:#373737;fill-opacity:1" /><path
         d="m 20,1036.8 -14.812,8.6 H 19 20 v -1 z"
         fill="#2c3e50"
         id="path12806"
         style="fill:#2d2d2d;fill-opacity:1" /></g><circle
       style="fill:none;fill-opacity:1;stroke:#232323;stroke-width:7.03231;stroke-dasharray:none;stroke-opacity:1"
       id="path1145"
       cx="254.97514"
       cy="256.31146"
       r="24.506983"
       inkscape:export-filename="webs-projects\portfolio-webpage\logo\ring.svg"
       inkscape:export-xdpi="50"
       inkscape:export-ydpi="50" /><path
       style="fill:none;fill-opacity:1;stroke:#232323;stroke-width:7.93776;stroke-dasharray:none;stroke-opacity:1"
       d="M 255.2424,231.98995 V 0.26726951"
       id="path3563" /><g
       id="g6739"
       transform="matrix(0.47902098,0,0,0.47902098,154.45285,148.62027)"
       inkscape:export-filename="webs-projects\portfolio-webpage\logo\boxing-gloves.svg"
       inkscape:export-xdpi="50"
       inkscape:export-ydpi="50"><path
         id="path3478"
         sodipodi:nodetypes="csscssscscscscccscssccscssscsssscsscsscccccscsccccccsccssccccccscssccsccccsscccccscccssscsscssccssccccccccsssccssscccccscsssccccccsccsscsscssccscccccscsssssccsssscccscccssscccssscsscsscscccscsssccscccsscccscsscsccssccsssscsscsscccccccscccscscsccccscccscsscc"
         style="fill:#232323;fill-opacity:1;stroke-width:0.264583"
         inkscape:connector-curvature="0"
         d="m 340.96101,281.05676 c -2.27282,-0.54195 -8.91434,-1.56941 -14.75872,-2.28323 -8.18198,-0.99933 -11.66945,-2.01522 -15.16222,-4.41695 -5.67478,-3.90207 -10.67223,-9.87848 -13.80119,-16.50365 -2.11262,-4.47331 -2.26184,-5.93328 -1.19356,-11.68479 1.31717,-7.09163 -1.22137,-28.27602 2.41062,-5.06704 0.34824,2.22531 0.28678,2.45309 1.76289,1.23378 1.729,-1.42819 1.72677,-2.66197 -0.0272,-14.69575 -0.49355,-3.38667 -0.44159,-3.43297 1.31977,-1.17512 1.00843,1.29265 2.28346,2.23263 2.83316,2.08888 0.54986,-0.14375 1.37729,3.74915 1.83883,8.65108 0.65458,6.95246 0.48503,9.13025 -0.77089,9.90283 -1.04468,0.64267 -1.98237,0.328 -2.67071,-0.8963 -0.9162,-1.62949 -1.27489,-1.5021 -2.63176,0.93464 -0.86391,1.5517 -1.58969,3.65601 -1.61271,4.67624 -0.0578,2.58265 6.99743,12.92516 8.64447,12.67169 0.74218,-0.11422 4.27169,1.14657 7.8433,2.80194 8.95668,4.15105 11.94383,4.95697 11.19347,3.01942 -0.46911,-1.21086 1.13122,-1.44409 7.38663,-1.07658 5.23452,0.30755 6.9903,0.72554 5.09614,1.21345 -2.59339,0.66805 -2.35148,0.90334 2.36138,2.29627 2.88793,0.85357 5.80046,1.99641 6.47251,2.53968 1.32402,1.07053 8.81406,-4.11321 8.81406,-6.09997 0,-0.64563 -0.83487,-0.3429 -1.85536,0.67273 -1.02048,1.01566 -2.71384,1.84664 -3.76291,1.84664 -1.45568,0 -1.15602,-0.78087 1.265,-3.29592 3.19114,-3.31523 4.3143,-8.45529 1.84743,-8.45529 -0.95459,0 -0.96851,-0.42796 -0.0496,-1.53006 2.12797,-2.55204 0.27239,-6.3238 -3.74385,-7.60968 -2.93952,-0.94123 -3.18505,-1.22203 -1.14988,-1.31641 2.61205,-0.12113 5.18848,-2.47023 2.70933,-2.47023 -0.73522,0 -1.1553,-0.9254 -0.93334,-2.05647 0.22752,-1.15935 -1.02235,-3.25543 -2.86517,-4.8051 -4.29869,-3.61447 -4.14788,-5.07259 0.36285,-3.50758 5.4266,1.88278 6.29311,0.2296 6.03938,-11.51996 -0.1347,-6.23411 0.46413,-12.45658 1.5486,-16.09116 2.2628,-7.58402 2.3236,-7.21519 -1.4787,-8.97678 -2.1948,-1.0169 -8.2206,-1.44074 -18.59598,-1.308 l -15.349,0.19635 -6.99321,6.70137 -14.44598,15.79007 15.03627,-17.7583 7.58349,-8.66934 7.61127,1.57681 c 6.95669,1.44118 13.46517,1.49235 12.94024,0.64709 -0.5188,-0.83561 2.023,0.36732 8.1825,-0.80653 l 7.7298,2.86623 2.75723,-13.385 c 0.84595,-4.84744 1.39959,-10.6643 1.23028,-12.92649 -0.19211,-2.56564 0.35775,-4.62941 1.46135,-5.48587 0.973,-0.75507 1.33511,-1.80477 0.80476,-2.3327 -0.53049,-0.52792 -1.92218,0.30382 -3.09272,1.84833 -2.08002,2.74479 -1.17287,0.35015 -12.57326,-0.50816 -6.41509,-0.483 -14.02795,1.4768 -15.42706,1.37512 -1.39912,-0.10165 -2.29751,-0.5815 -1.99655,-1.06622 0.30094,-0.48474 -0.0472,-0.88135 -0.77277,-0.88135 -0.72601,0 -1.01658,-0.48879 -0.64561,-1.0862 0.37097,-0.5974 -0.26175,-1.37403 -1.40621,-1.72579 -1.14432,-0.35179 0.0449,-0.39765 2.64216,-0.10189 2.59752,0.29575 6.18384,0.54356 7.96978,0.55068 11.05323,-1.04426 12.20126,4.25 11.70808,0.50408 0.0153,-1.70444 2.17432,-0.8246 5.70706,-1.66626 0.76298,1.17512 1.15059,1.27304 1.16263,0.29379 0.0119,-0.80791 0.84643,-1.46891 1.85878,-1.46891 1.01243,0 1.51233,0.52879 1.11101,1.17512 -0.41029,0.66066 0.53038,1.17512 2.14852,1.17512 3.20966,0 6.18543,5.31468 5.7703,10.30578 -0.47382,5.6978 1.50315,7.2017 9.41864,7.16386 4.03516,-0.0193 6.61458,-0.4467 5.78273,-0.95837 -1.03865,-0.63892 -0.55705,-1.1597 1.56229,-1.68908 2.64742,-0.66135 7.05352,-0.83161 7.22894,-5.12762 0.42199,-10.32748 -4.01161,-19.64029 -4.94189,-18.71398 -0.4273,0.42526 -1.46441,0.2053 -2.3047,-0.48879 -0.87643,-0.72398 -2.68446,-0.8867 -4.24101,-0.38169 -1.49227,0.48419 -3.86582,0.94009 -5.27473,1.01309 -2.74955,0.1425 -7.28345,-27.29706 -7.35939,-34.16035 l -0.0254,-2.28233 4.03331,21.81702 c 0.91869,4.20105 2.05857,8.82808 2.08891,10.2825 0.0567,2.72018 1.35626,3.54171 2.63552,1.48145 0.39706,-0.63942 0.0909,-4.35716 -0.68138,-8.26188 -0.77182,-3.90445 -1.11967,-7.38161 -0.77301,-7.72662 0.34666,-0.34502 1.28873,3.04006 2.09349,7.5221 1.32969,7.40516 1.69111,8.09228 3.95817,7.52316 1.3722,-0.34438 2.76039,-0.99785 3.08504,-1.45216 0.32469,-0.45435 1.74294,-1.18383 3.15171,-1.62111 3.17606,-0.98586 4.18995,1.59049 4.58074,11.64194 0.19671,5.05698 1.31209,9.21067 3.9444,14.68913 2.01864,4.20106 3.67057,8.88154 3.6711,10.4013 0,1.75488 2.69319,5.67055 7.38028,10.7323 16.69442,18.02897 21.88237,33.82433 14.5296,44.23304 -1.57149,2.22477 -4.60111,5.16281 -2.87999,9.52341 -3.3147,9.66708 -3.81741,6.8281 -10.96857,15.0159 -1.61721,1.85166 -7.79489,4.61327 -13.96391,4.91596 -8.92281,0.43809 -12.68571,0.0886 -18.40045,-1.70913 l -7.18397,-2.25984 -1.34397,5.00142 c -1.57234,5.85126 -5.37025,8.93181 -13.44295,10.90428 -6.19549,1.51368 -6.91753,1.5209 -12.76006,0.12776 z m 60.04454,-16.92249 c 3.67665,0.073 10.67779,-10.71748 5.51286,-6.55293 -2.04012,1.68518 -2.48407,-2.4e-4 -0.51607,-1.95903 0.78798,-0.78423 0.84891,-1.54493 0.15788,-1.97001 -0.61916,-0.38087 -2.07614,0.35266 -3.23771,1.63004 -2.56731,2.82337 -5.0546,3.12791 -2.77601,0.33984 1.44174,-1.76414 1.36004,-1.879 -0.74099,-1.04183 -1.29876,0.5175 -3.42397,1.18171 -4.72281,1.47601 -2.25738,0.51152 -2.2641,0.47371 -0.15351,-0.85818 1.64978,-1.04108 1.83419,-1.62314 0.72943,-2.30264 -1.0513,-0.6467 -0.75116,-1.13906 1.03912,-1.70458 3.16521,-0.99986 3.23665,-2.52577 0.15597,-3.32766 -3.61976,-0.94211 -2.80405,-3.18479 1.15814,-3.18479 2.80114,0 3.67612,-0.62058 4.28625,-3.04007 0.94538,-3.74861 -2.96149,-9.48901 -6.06743,-8.9146 -1.14244,0.21122 -2.41972,-0.16753 -2.83845,-0.84164 -0.51054,-0.82222 -1.79406,-0.69231 -3.8989,0.39457 -2.14521,1.10773 -3.27342,1.21523 -3.56658,0.33983 -0.26803,-0.80012 -1.0631,-0.89029 -2.11971,-0.24042 -0.92991,0.57203 -3.53483,1.11958 -5.78856,1.21682 l -4.0976,0.17679 4.04257,-3.35915 c 2.22348,-1.84748 5.30225,-3.35915 6.84213,-3.35915 3.2131,0 3.00487,-2.13972 -0.39212,-4.02908 -2.56765,-1.42798 -5.31124,-4.54766 -4.61168,-5.24378 0.25587,-0.25469 1.36723,0.27327 2.46954,1.1733 1.7962,1.46645 1.93326,1.36181 1.31977,-1.00767 -0.75399,-2.91227 0.21407,-3.40995 2.40035,-1.23388 1.10194,1.09678 1.45261,0.37864 1.57766,-3.23162 0.10509,-3.03874 0.32811,-3.62718 0.64524,-1.70395 0.75469,4.5765 2.903,9.40092 4.18623,9.40092 0.64006,0 0.9148,-0.66101 0.61056,-1.46892 -0.30438,-0.8079 -0.13283,-2.52653 0.381,-3.81926 0.84809,-2.13333 0.94538,-2.07909 1.05484,0.58756 0.11856,2.88899 0.15173,2.89878 1.9904,0.58756 1.81261,-2.27833 1.85251,-2.25136 1.30681,0.88135 -0.70181,4.02908 0.56745,4.16984 2.65165,0.2938 0.86887,-1.61581 1.94755,-2.93794 2.39718,-2.93794 0.44961,0 0.56354,1.32202 0.25315,2.93794 -0.36258,1.88785 -0.0271,2.93793 0.93713,2.93793 1.00277,0 0.79166,0.78052 -0.63569,2.35027 -2.08063,2.28825 -2.06208,2.35072 0.70252,2.36826 1.81886,0.0118 2.3177,0.34795 1.3878,0.93591 -1.00441,0.635 -0.27652,1.61628 2.36138,3.18373 l 3.81317,2.26586 -3.16071,0.61741 -3.16071,0.61741 2.94322,3.38719 5.38136,8.87307 3.97563,-5.96847 c 4.76197,-7.14878 4.8043,-12.93257 2.50161,-20.19803 -1.96456,-6.19892 -4.962,-14.92726 -7.73721,-14.92911 -0.84833,-5.3e-4 -3.97245,-2.0143 -6.57013,-6.33757 -2.90804,-4.84002 -6.45954,-11.45857 -9.73111,-13.80569 -5.17605,-3.71369 -12.18856,-3.20517 -12.18856,-1.09178 0,0.57616 -11.85122,2.188 -14.41609,3.2094 -5.93831,2.36479 -5.73061,4.55348 -5.61896,13.34293 0.0578,4.59635 -3.69755,11.73983 -5.64859,17.64533 -2.6398,7.98936 -1.31347,21.88104 -0.14012,26.51919 0.73229,2.89454 2.79241,6.98844 4.68392,10.1809 3.35256,5.65838 8.51035,5.44671 12.08196,8.39682 0.96522,0.79729 4.8297,0.88918 8.21531,2.06668 6.64448,2.31095 13.11936,2.0746 18.38166,-0.67093 z m -12.59417,-84.88891 c -0.85232,-0.33947 -1.87068,-0.29771 -2.26303,0.0927 -0.39235,0.3905 0.30509,0.66823 1.54966,0.6172 1.37552,-0.0564 1.65521,-0.33483 0.71337,-0.70996 z m -92.17289,50.62008 c -0.11335,-3.84281 0.71054,-5.93646 4.04468,-10.2825 5.23584,-6.82493 6.2574,-7.0792 1.85923,-0.46276 -1.82594,2.7469 -3.86953,7.37394 -4.54104,10.2825 l -1.22108,5.28796 z m 24.82956,-40.23254 c -0.23229,-21.04549 2.50629,-17.60644 0.66177,-1.13761 -0.19707,1.75962 1.37457,3.34381 2.4797,3.57294 1.55073,0.32168 1.46217,4.09284 -0.60298,4.65561 -2.4229,0.66013 -2.69981,-3.17209 -2.53849,-7.09084 z m 0.47016,-15.4604 c 0.98034,-9.25751 6.70057,-13.77606 8.9371,-9.57845 l 1.27071,2.38496 -4.95115,0.9503 c -2.85564,0.54809 -2.96068,-0.44381 -3.175,5.29246 -0.12279,3.28798 -0.8233,6.56564 -1.55686,7.28372 -0.99001,0.96922 -1.12519,-0.66223 -0.52469,-6.33281 z m 26.02045,-7.50041 c 0.69069,-1.97194 14.09515,-39.45202 14.28723,-39.25623 0.6404,6.25264 -11.11038,39.56579 -14.28723,39.25623 z m 7.28318,-3.59516 c 0,-0.96948 2.09259,-7.00114 2.6506,-8.29389 0.63958,-1.4814 3.1959,-9.69698 3.1959,-8.58573 0,0.96949 -2.63789,10.81855 -3.1959,12.1113 -0.6396,1.4814 -2.6506,5.87957 -2.6506,4.76859 z m 11.50594,-4.81092 c 1.94813,-0.88783 8.33808,-4.50638 9.31228,-4.48627 0.97406,0.02 -4.08782,3.65707 -6.36059,4.52861 -5.67134,2.17535 -23.11744,8.10445 -2.95169,-0.0424 z m -7.5692,-7.00828 c -0.0496,-0.64632 1.50029,-7.19534 3.44435,-14.55314 3.96822,-15.02013 4.25529,-17.30534 1.6401,-13.06222 -0.99592,1.61582 -7.88723,22.37158 -7.53825,21.24049 0.86614,-2.80564 5.94757,-26.10908 4.29101,-25.12113 -0.74371,-0.67736 -4.98554,-4.4786 -4.09442,-4.27223 0.8913,-1.09355 5.94783,2.86809 5.19112,3.46499 -1.61337,1.27243 4.03622,-3.04139 3.58114,-4.22196 -0.39423,-1.02235 -0.71668,-2.50669 -0.71668,-3.29856 0,-0.79184 -1.46111,-2.02427 -3.24697,-2.7387 l -3.24696,-1.299 4.0558,0.19082 c 3.94282,0.18549 4.06188,0.0599 4.27751,-4.50982 0.12184,-2.5853 -0.3072,-5.361523 -0.95342,-6.169563 -2.53471,-3.16865 0.87005,-1.25095 4.02669,2.26814 3.72957,4.157933 3.31602,4.096813 2.17154,6.839223 -3.67321,8.80242 -1.16631,0.97692 -1.19851,-1.76271 -0.0472,-3.04192 -0.22444,-3.23374 -1.29757,-1.39753 -2.83315,4.84796 2.92577,7.61471 7.42104,3.56579 1.18755,-1.06966 2.15913,-1.38356 2.15913,-0.69757 0,0.68598 7.37579,-0.81413 8.83708,-1.11189 1.46111,-0.29774 -5.91476,2.49497 -8.83708,3.98436 -2.92232,1.48931 -5.49011,2.31124 -5.70653,1.8265 -0.21654,-0.48474 -1.54483,-0.86453 -2.9517,-0.84397 -2.54121,0.0371 0.91128,-1.94985 3.25702,-0.102 1.63598,1.28873 -1.72754,3.84704 -2.75007,4.22857 -0.81172,0.30287 -1.29411,1.7676 -1.29411,3.03292 0,1.26521 -1.03582,5.58376 -2.30187,9.59696 -1.26606,4.0132 -3.61289,11.52684 -5.21547,16.69759 -1.60232,5.17049 -2.95407,8.87227 -3.00355,8.2259 z m 15.47389,-19.9771 c -0.0236,-1.93897 -0.5062,-5.783 -0.1828,-4.98739 0.32351,0.7956 2.34267,11.65277 2.04325,12.79604 -0.2993,1.14337 -1.83634,-5.86978 -1.86042,-7.80865 z m -1.31765,-5.77771 c -0.0507,-1.23877 -1.40811,-14.11208 -1.01579,-13.72155 0.39235,0.39047 3.70629,20.85419 3.36524,21.70245 -0.37701,0.93744 -2.2927,-6.61221 -2.34937,-7.98116 z m -16.62298,-10.0195 c 0,-1.70585 8.06741,-6.26613 9.09056,-5.24801 0.41264,0.41071 -2.21197,1.65563 -2.94429,1.65563 -0.73226,0 -2.41474,1.15734 -3.73882,2.57185 -1.32416,1.41452 -2.40745,1.77374 -2.40745,1.02045 z m 5.38004,-10.90454 c -2.33458,-3.31734 -2.32632,-5.743573 0.0295,-8.621183 3.30703,-1.51596 7.59513,0.62177 1.04669,0.0692 -1.94167,5.560753 -1.89042,6.345773 0.51181,7.838813 3.04774,2.22721 5.48693,6.25952 1.36382,3.32476 -0.49911,-0.35526 -1.94093,-1.17528 -2.95169,-2.61173 z m 25.90827,-0.56695 c 4.30344,-2.31994 1.17022,-5.152233 -3.27211,-1.64425 -9.4996,7.50147 -6.8916,3.24988 -2.42914,-0.84487 3.07129,-2.340533 9.83351,-1.947333 9.83351,0.40881 0,0.98547 -1.36287,2.30748 -3.02869,2.93793 -4.54951,1.72159 -5.09799,1.29561 -1.10384,-0.85751 z" /><path
         id="path4309"
         style="color:#000000;fill:#373737;fill-opacity:1;stroke-width:0.264583"
         inkscape:connector-curvature="0"
         d="m 346.6522,274.91313 c -1.28119,-0.6754 -2.51233,-1.12879 -6.41218,-2.36141 -3.70417,-1.17072 -3.92192,-1.38559 -2.02808,-1.99998 1.13384,-0.36785 1.32066,-0.57782 0.63994,-0.71935 -2.4307,-0.50533 -10.81749,-0.84555 -11.91498,-0.48337 -0.3711,0.12248 -0.68178,0.31859 -0.6904,0.43582 -0.009,0.11722 -0.0291,0.49943 -0.0455,0.84934 l -0.0298,0.63622 -0.91279,-0.0359 c -1.24306,-0.0489 -3.25702,-0.78938 -8.81988,-3.243 -4.67492,-2.06187 -7.76473,-3.22368 -9.17231,-3.44858 -0.58502,-0.0935 -0.95954,-0.35337 -1.91662,-1.32974 -2.51531,-2.56606 -5.95206,-7.9465 -6.72571,-10.52989 -0.32099,-1.07159 -0.014,-2.38463 1.0943,-4.68048 1.00713,-2.08634 1.52661,-2.81754 2.00165,-2.81754 0.19186,0 0.62079,0.38949 1.00436,0.91199 0.80385,1.09508 1.20922,1.33829 1.98733,1.19229 0.71634,-0.13439 1.32176,-0.74552 1.55938,-1.57411 0.54536,-1.90151 -0.27369,-12.11183 -1.25659,-15.66492 -0.29403,-1.06291 -0.36658,-1.15994 -1.15109,-1.53961 -0.52515,-0.25414 -1.36539,-0.98219 -2.25383,-1.95295 -0.77909,-0.85127 -1.47817,-1.48611 -1.55353,-1.41075 -0.0754,0.0754 0.19555,2.50838 0.60201,5.40676 0.90001,6.41773 1.03013,9.77159 0.41939,10.8114 -0.20471,0.34846 -0.72866,0.90543 -1.16433,1.23775 -0.64743,0.49382 -0.83346,0.5607 -1.01832,0.36621 -0.1244,-0.13088 -0.61741,-2.64105 -1.09556,-5.57821 l -0.8694,-5.34009 0.48853,-1.98686 c 0.96866,-3.93965 2.62805,-7.63058 5.51921,-12.27693 1.40205,-2.25303 2.13434,-3.16204 5.69542,-7.07073 2.24763,-2.46692 5.79279,-6.13674 7.87823,-8.15551 l 3.79174,-3.6703 10.47777,-0.12188 c 15.95861,-0.18564 21.08412,0.15613 24.18848,1.61287 0.79798,0.37447 1.63875,0.88104 1.86838,1.1257 0.66164,0.70498 0.54414,1.96744 -0.53776,5.77717 -1.66572,5.86555 -1.85122,7.46946 -2.04958,17.72338 -0.15982,8.26215 -0.27818,9.68111 -0.91101,10.92147 -0.79595,1.56017 -1.80219,1.72146 -5.07127,0.81294 -2.80035,-0.77828 -3.34725,-0.786 -3.43191,-0.0485 -0.0504,0.43857 0.25693,0.81724 2.28645,2.81754 2.88607,2.84454 3.36735,3.6068 3.51234,5.56313 0.11329,1.52916 0.35751,1.9285 1.17941,1.9285 0.64386,0 0.90506,0.45722 0.56107,0.98221 -0.36504,0.55713 -1.96358,1.33734 -3.02762,1.47767 -2.07034,0.27308 -2.05968,0.35182 0.15702,1.15787 1.94244,0.70633 2.8837,1.26291 3.74148,2.21226 1.60761,1.77946 1.80605,3.683 0.57692,5.53429 -0.73448,1.10622 -0.74798,1.54202 -0.0477,1.54202 1.29163,0 1.74478,1.67722 1.03136,3.81741 -0.52357,1.57059 -1.55576,3.27501 -2.88212,4.75932 -2.08221,2.33014 -2.39892,2.91862 -1.6728,3.10859 0.86694,0.22672 2.49653,-0.40783 3.80815,-1.48283 1.70176,-1.39478 2.19526,-1.58991 2.19526,-0.86807 0,1.56808 -5.31576,5.72267 -7.90735,6.17987 -0.39687,0.07 -0.8586,-0.0689 -1.69598,-0.51035 z" /><path
         id="path4319"
         style="color:#000000;fill:#373737;fill-opacity:1;stroke-width:0.264583"
         inkscape:connector-curvature="0"
         d="m 355.96818,198.71313 c -0.88638,-0.32197 -3.37265,-0.7144 -5.94307,-0.9381 -2.43055,-0.21153 -5.14377,-0.44786 -6.02959,-0.5252 -0.88567,-0.0774 -1.78057,5.3e-4 -1.98864,0.17336 -1.13892,0.94522 -6.32857,0.59102 -13.76521,-0.93949 l -3.34486,-0.68836 0.0896,-1.41597 c 0.0661,-1.04585 -0.046,-1.52385 -0.42907,-1.82865 -2.19663,-1.74781 -2.87602,-2.64768 -2.87285,-3.8055 0.006,-2.3146 0.64876,-8.48571 1.07495,-10.32351 0.23853,-1.02849 0.57515,-3.48377 0.74808,-5.45624 0.17292,-1.97249 0.45159,-3.84281 0.61929,-4.15607 0.17227,-0.32189 0.80039,-0.65866 1.44407,-0.7742 0.62656,-0.11247 2.09354,-0.38219 3.25993,-0.59936 1.19277,-0.22208 2.32693,-0.28453 2.59188,-0.14274 0.49324,0.26397 5.04084,-0.0113 10.22112,-0.61875 3.90075,-0.45739 10.34786,-0.16024 13.75384,0.63391 3.73936,0.87193 4.55798,0.81137 5.7105,-0.42246 2.71384,-2.90539 4.47517,-2.26941 2.2922,0.82762 -1.14814,1.62885 -1.45844,3.08716 -1.47588,6.93552 -0.0209,4.58152 -1.03917,11.25617 -3.45572,22.64754 -0.21069,0.99322 -0.51668,1.84285 -0.67993,1.88804 -0.16327,0.0452 -0.98258,-0.16691 -1.8207,-0.47133 z" /><path
         id="path4323"
         style="color:#000000;fill:#373737;fill-opacity:1;stroke-width:0.264583"
         inkscape:connector-curvature="0"
         d="m 372.26916,180.74263 c -3.24327,-1.04026 -3.7256,-1.8497 -3.99495,-6.70454 -0.15682,-2.82548 -0.39267,-4.31932 -0.89088,-5.64303 -0.87566,-2.32654 -2.82019,-4.33388 -4.4569,-4.60058 -2.00502,-0.32676 -2.54162,-0.6636 -2.53757,-1.59297 0.003,-0.80635 0.17971,-0.90684 3.88594,-2.21613 4.72493,-1.66923 6.81116,-2.63385 9.19136,-4.25026 1.00078,-0.67961 2.16476,-1.23566 2.58664,-1.23566 0.42188,0 2.15392,-0.2953 3.8489,-0.65625 l 3.08186,-0.65624 1.57745,0.64029 c 0.86759,0.35216 1.98443,0.68175 2.4819,0.73244 1.0682,0.10884 1.95005,1.27188 2.92205,3.85392 1.50532,3.99865 2.42126,8.98631 2.42126,13.18499 0,4.15237 -0.93626,5.32606 -5.08688,6.37725 -2.67785,0.6782 -4.05633,1.18491 -4.05633,1.49095 0,0.11376 0.14912,0.35595 0.33134,0.53816 0.2386,0.23859 0.21728,0.40495 -0.0762,0.59431 -0.52769,0.34052 -10.228,0.46427 -11.22892,0.14325 z" /><path
         id="path4325"
         style="color:#000000;fill:#373737;fill-opacity:1;stroke-width:0.264583"
         inkscape:connector-curvature="0"
         d="m 386.59634,265.99138 c -0.7543,-0.16159 -2.26293,-0.55213 -3.35253,-0.86786 -1.08956,-0.31573 -3.28084,-0.86185 -4.86939,-1.21356 -2.18364,-0.48348 -3.93118,-1.16655 -7.16201,-2.79956 -5.35755,-2.70774 -6.57331,-3.54065 -8.05524,-5.51947 -1.45309,-1.94027 -4.66222,-8.29099 -5.34353,-10.5746 -1.29151,-4.32912 -1.98659,-14.1105 -1.41861,-19.96255 0.44347,-4.56909 0.98118,-6.63681 3.36841,-12.95268 3.22051,-8.52038 3.64278,-10.40421 3.66104,-16.32611 0.0124,-4.05024 0.553,-5.86211 2.15902,-7.23689 1.72718,-1.47841 3.81609,-2.18649 10.46719,-3.54832 6.58812,-1.34885 6.74026,-1.39356 7.85071,-2.30765 2.49825,-2.05634 9.6438,-0.43796 13.03391,2.95196 1.58787,1.58787 3.87773,4.85749 6.58283,9.39959 3.68009,6.17908 5.52635,8.26029 8.48995,9.57103 2.04301,0.90353 3.23453,2.70696 5.3549,8.10578 5.40756,13.76812 5.18795,19.02857 -1.20068,28.76285 -1.4987,2.28365 -2.83236,4.14735 -2.96386,4.14153 -0.13144,-0.006 -1.36424,-1.89154 -2.7395,-4.19074 -1.37535,-2.29907 -3.19272,-4.99745 -4.03886,-5.99625 -1.06191,-1.25378 -1.42007,-1.8786 -1.15665,-2.01777 0.20989,-0.11087 1.28249,-0.36732 2.3836,-0.56991 1.10112,-0.20258 2.17366,-0.4744 2.38347,-0.60407 0.25361,-0.15672 -0.36639,-0.70202 -1.84962,-1.62682 -2.93502,-1.82991 -3.85445,-2.79691 -3.38084,-3.5552 0.44585,-0.71393 0.22195,-0.93321 -0.95811,-0.93843 -1.33215,-0.006 -2.31119,-0.31252 -2.31119,-0.72387 0,-0.1937 0.39039,-0.82915 0.86754,-1.41213 1.5498,-1.89355 1.66381,-2.30029 0.80275,-2.86438 -0.70708,-0.46329 -0.75597,-0.66368 -0.75597,-3.09695 0,-1.68413 -0.10919,-2.53402 -0.30967,-2.41014 -0.17031,0.10526 -0.97605,1.17623 -1.79051,2.37998 -0.81447,1.20372 -1.76139,2.43996 -2.10426,2.74717 -0.60447,0.54165 -0.63193,0.54165 -0.90398,0 -0.1543,-0.30724 -0.19637,-1.48437 -0.0935,-2.61583 0.10287,-1.13147 0.10575,-2.05722 0.006,-2.05722 -0.0994,0 -0.75488,0.63905 -1.45674,1.42013 -0.70186,0.78107 -1.37801,1.31836 -1.50252,1.19403 -0.12457,-0.12435 -0.30247,-1.07198 -0.39539,-2.10587 -0.16632,-1.85039 -0.17505,-1.86547 -0.55896,-0.96544 -0.21453,0.50287 -0.46778,1.92088 -0.56285,3.15119 -0.18227,2.35879 -0.57076,2.90989 -1.50842,2.14027 -0.73067,-0.59984 -2.41286,-4.3778 -3.01281,-6.76646 -0.28347,-1.12855 -0.5811,-1.98625 -0.66138,-1.90597 -0.0803,0.0803 -0.25362,1.12678 -0.38523,2.3256 -0.1316,1.1988 -0.37851,2.31892 -0.54872,2.4891 -0.20944,0.20943 -0.75549,0.002 -1.68939,-0.63995 -0.88966,-0.61211 -1.45251,-0.83198 -1.58422,-0.61891 -0.11237,0.18178 -0.10999,1.2111 0.005,2.28737 0.11526,1.07627 0.13272,1.95686 0.0388,1.95686 -0.0939,0 -0.93906,-0.49149 -1.87815,-1.09223 -0.93908,-0.60073 -1.78469,-1.01496 -1.87915,-0.92051 -0.36089,0.36089 1.53747,2.69769 3.19088,3.92774 0.95009,0.70684 2.26451,1.7998 2.921,2.42882 1.11416,1.06768 1.16409,1.18798 0.75094,1.8102 -0.29681,0.44702 -1.03275,0.80055 -2.23486,1.07358 -2.32185,0.52731 -5.17445,2.11042 -7.9711,4.42383 -1.22973,1.01719 -2.19916,1.87571 -2.15429,1.90783 0.2772,0.19845 6.02589,-0.50091 7.61524,-0.92644 3.21177,-0.85992 3.3438,-0.87196 3.64569,-0.33266 0.39656,0.70858 1.67452,0.62172 3.84837,-0.26161 2.26586,-0.92069 2.79849,-0.9407 4.0894,-0.15352 0.54882,0.33462 1.51765,0.60891 2.15291,0.60955 2.52106,0.002 5.23293,2.46237 6.16135,5.58879 0.58259,1.96183 0.57388,2.94164 -0.0397,4.47543 -0.58624,1.46515 -1.45105,1.97067 -3.82958,2.2384 -3.92456,0.4418 -4.3471,1.37319 -1.30341,2.87417 1.09529,0.54012 2.07068,1.18845 2.16749,1.44076 0.24532,0.63934 -0.39357,1.31133 -1.93612,2.03642 -1.61483,0.75906 -1.81004,1.04447 -1.18599,1.73405 0.71054,0.78515 0.61441,1.10268 -0.64913,2.14421 -0.62489,0.51509 -0.99171,0.93649 -0.81518,0.93649 0.17653,0 1.72492,-0.42002 3.44091,-0.93339 1.71595,-0.51338 3.24511,-0.89054 3.39804,-0.83813 0.15301,0.0524 -0.14867,0.75073 -0.67038,1.55187 -1.5739,2.41678 -0.78705,2.17683 3.05383,-0.93131 1.17506,-0.95089 1.85793,-1.29522 2.43556,-1.22809 1.13409,0.13177 1.13739,0.83457 0.0124,2.64414 -0.53679,0.86349 -0.89313,1.65282 -0.7919,1.75408 0.10123,0.10125 0.82566,-0.1745 1.60981,-0.61277 3.32554,-1.85862 3.41444,-0.53436 0.1719,2.55563 -3.45784,3.29512 -7.22419,5.3766 -11.03577,6.09971 -1.95837,0.37139 -7.27367,0.33734 -9.12125,-0.0585 v 0 z" /></g><path
       d="m 381.32786,269.15527 c 0,1.29982 -1.05775,2.35757 -2.35757,2.35757 -1.29983,0 -2.35764,-1.05775 -2.35764,-2.35757 0,-1.29982 1.05781,-2.35763 2.35764,-2.35763 1.29982,0 2.35757,1.05781 2.35757,2.35763 z m 25.14783,9.76991 c 0,2.49433 -0.8802,4.07234 -2.74899,4.99655 -0.22455,0.11168 -0.46513,0.16514 -0.70572,0.16514 -0.38019,0 -0.75758,-0.13662 -1.05621,-0.40097 l -4.88654,-4.31441 c -0.87703,-0.77647 -1.64085,-1.57802 -3.77846,-1.57802 h -11.36836 c -2.13754,0 -2.90296,0.80155 -3.77846,1.57802 l -4.88807,4.31441 c -0.29524,0.26375 -0.67431,0.40097 -1.05622,0.40097 -0.2388,0 -0.48236,-0.0535 -0.70572,-0.16514 -1.8688,-0.92421 -2.74893,-2.50222 -2.74893,-4.995 0,-3.24092 1.48529,-8.58326 4.21378,-15.49263 1.29198,-3.27388 3.60245,-4.49511 5.80759,-4.49511 1.03109,0 2.04012,0.26732 2.91241,0.71671 3.80989,1.96307 8.12591,1.92221 11.85721,0 0.86914,-0.44969 1.87823,-0.71671 2.90926,-0.71671 2.20514,0 4.51715,1.22123 5.80914,4.49511 2.72694,6.90783 4.21229,12.25017 4.21229,15.49108 z m -23.57605,-9.76991 c 0,-2.17057 -1.75878,-3.92935 -3.92935,-3.92935 -2.17058,0 -3.92935,1.75878 -3.92935,3.92935 0,2.17057 1.75877,3.92935 3.92935,3.92935 2.17057,0 3.92935,-1.75878 3.92935,-3.92935 z m 6.28693,-3.92935 c 0,-0.8676 -0.70257,-1.57171 -1.57173,-1.57171 -0.86919,0 -1.57177,0.70411 -1.57177,1.57171 0,0.86759 0.70258,1.57172 1.57177,1.57172 0.86916,0 1.57173,-0.70413 1.57173,-1.57172 z m 5.50107,3.92935 c 0,-0.65226 -0.52811,-1.17882 -1.17882,-1.17882 -0.65066,0 -1.17876,0.52632 -1.17876,1.17882 0,0.65226 0.5281,1.17876 1.17876,1.17876 0.65071,0 1.17882,-0.52632 1.17882,-1.17876 z m 2.75053,2.75053 c 0,-0.65225 -0.5281,-1.17881 -1.17882,-1.17881 -0.65065,0 -1.17875,0.52632 -1.17875,1.17881 0,0.65226 0.5281,1.17882 1.17875,1.17882 0.65072,0 1.17882,-0.52632 1.17882,-1.17882 z m 0,-5.54984 c 0,-0.65225 -0.5281,-1.17876 -1.17882,-1.17876 -0.65065,0 -1.17875,0.52633 -1.17875,1.17876 0,0.65232 0.5281,1.17882 1.17875,1.17882 0.65072,0 1.17882,-0.52811 1.17882,-1.17882 z m 2.7254,2.79931 c 0,-0.65226 -0.5281,-1.17882 -1.17881,-1.17882 -0.65071,0 -1.17882,0.52632 -1.17882,1.17882 0,0.65226 0.52811,1.17876 1.17882,1.17876 0.65071,0 1.17881,-0.52632 1.17881,-1.17876 z"
       id="path9794"
       style="fill:#232323;fill-opacity:1;stroke-width:1.57173"
       inkscape:export-filename="webs-projects\portfolio-webpage\logo\controller.svg"
       inkscape:export-xdpi="50"
       inkscape:export-ydpi="50" /></g></svg>
